<?xml version="1.0" encoding="utf-8" ?>
<svg baseProfile="full" height="300mm" version="1.1" viewBox="0,0,200,300" width="200mm" xmlns="http://www.w3.org/2000/svg" xmlns:ev="http://www.w3.org/2001/xml-events" xmlns:xlink="http://www.w3.org/1999/xlink"><defs /><rect fill="#222222" height="300" width="200" x="0" y="0" /><text fill="#FFFFFF" style="font-size:12px; font-family:Arial; font-weight:bold;" x="10" y="20">Over 10km Runs</text><text fill="#FFFFFF" style="font-size:4px; font-family:Arial" x="10" y="280">ATHLETE</text><text fill="#FFFFFF" style="font-size:9px; font-family:Arial" x="10" y="290">bobwng</text><text fill="#FFFFFF" style="font-size:4px; font-family:Arial" x="120" y="280">STATISTICS</text><text fill="#FFFFFF" style="font-size:3px; font-family:Arial" x="120" y="285">Number: 1</text><text fill="#FFFFFF" style="font-size:3px; font-family:Arial" x="120" y="290">Weekly: 1.0</text><text fill="#FFFFFF" style="font-size:3px; font-family:Arial" x="141" y="285">Total: 10.0 km</text><text fill="#FFFFFF" style="font-size:3px; font-family:Arial" x="141" y="290">Avg: 10.0 km</text><text fill="#FFFFFF" style="font-size:3px; font-family:Arial" x="167" y="285">Min: 10.0 km</text><text fill="#FFFFFF" style="font-size:3px; font-family:Arial" x="167" y="290">Max: 10.0 km</text><polyline fill="none" points="127.78475229721516,230.80341516953195 129.29799145413563,231.0 130.55902408482507,229.13244243210647 130.3908864003606,228.14951588911936 130.1386798741296,226.47853838122683 130.3068175590597,224.80755786958616 130.0546110328287,223.03828111290932 129.88647334836423,222.25193480681628 129.71833566436544,221.4655878356425 129.12985376967117,219.7945983131649 128.70950955990702,217.9270182334585 128.54137187544256,217.04237372829812 128.45730303321034,214.68331759847933 128.37323419144377,213.8969642247539 128.20509650744498,213.11061018606415 127.95288998167962,211.53790011280216 127.78475229721516,210.75154407828813 127.61661461275071,209.96518737851875 127.36440808698535,208.39247198367957 127.28033924475312,207.60611328849336 127.02813271898776,206.8197539280518 126.85999503452331,205.24703321116976 126.77592619229108,204.55896706093336 126.77592619229108,203.77260512282373 126.60778850829229,202.10158379509812 126.43965082475916,201.41351531638065 126.2715131402947,200.72544632840436 126.01930661406368,199.15271530096652 125.85116893006489,198.36634878913173 125.76710008829832,197.57998161192518 125.17861819360405,196.00724526221165 124.75827398337424,194.23791368782986 124.59013629890978,193.35324663773645 124.59013629890978,190.99413038790226 124.42199861491099,190.20775697362842 124.33792977314442,189.32308608846506 124.16979208914563,187.75033576774877 124.00165440514684,187.06225666572573 124.00165440514684,185.29290806455538 123.74944787891582,183.42525866511278 123.4972413526848,182.7371763610863 123.329103668686,181.95079596160213 122.90875945845619,179.88654424785636 122.65655293269083,178.21547997900052 122.57248408999294,177.42909575393423 122.48841524776071,176.7410090113408 122.32027756422758,175.06993908726145 119.71414346061647,173.30056765733752 119.04159272415563,173.30056765733752 119.04159272415563,173.30056765733752 118.95752388192341,173.30056765733752 118.95752388192341,173.30056765733752 118.95752388192341,173.30056765733752 118.95752388192341,173.30056765733752 118.95752388192341,173.30056765733752 118.95752388192341,173.30056765733752 118.95752388192341,173.30056765733752 118.95752388192341,173.30056765733752 118.95752388192341,173.30056765733752 118.95752388192341,173.30056765733752 118.95752388192341,173.20226914592786 118.70531735569239,172.61247785843443 118.3690419876948,171.53119285940193 116.26732093654573,170.1550101323519 115.34256367385387,170.44990660250187 113.66118683293462,171.13799800240668 112.73642957070842,171.43289416091284 111.0550527293235,172.02268619660754 110.38250199332833,172.2192834588932 109.7099512568675,172.41588067944394 108.53298746747896,172.90737354906742 107.86043673148379,173.10397062409902 107.27195483725518,173.30056765733752 106.68347294302657,173.49716464919038 105.5065091541037,173.89035850798246 104.83395841810852,174.0869553750963 104.07733883941546,174.2835522009409 102.81630620826036,174.77504408272216 102.14375547226518,174.9716407628148 100.79865399980918,175.16823740088148 100.12610326334834,175.26653570466442 98.36065758019686,175.75802706665127 97.51996915973723,176.0529217593139 95.92266116058454,176.7410090113408 94.74569737212732,177.5273938186001 93.98907779343426,178.0188839850598 91.97142558451742,178.6086718417355 91.04666832182556,178.9035656300257 89.28122263913974,179.49335292557953 88.35646537644789,179.68994860735256 86.5910196932964,179.98484205227578 85.16184937860817,180.27973540395033 83.48047253768891,180.672926393745 82.55571527499706,180.86952182638925 80.95840727584437,181.164414896979 80.11771885538474,181.26271256641485 79.27703043492511,181.36101022560615 77.67972243623808,181.55760551261483 76.83903401577845,181.655903140374 75.15765717439353,181.7542007577722 74.23289991216734,181.655903140374 71.54269696678966,181.55760551261483 70.61793970409781,181.45930787437828 68.76842517917976,181.26271256641485 66.24635991780087,181.36101022560615 65.40567149734125,181.164414896979 64.48091423464939,180.86952182638925 62.799537393730134,180.4763309195987 61.958848973270506,180.08313984662527 61.118160552345216,179.78824643290136 58.764232974965125,178.70696978160413 58.09168223896995,178.11718198709423 57.41913150250912,177.72398991620867 55.82182350335643,177.03590339189395 54.89706624066457,176.8393071485334 53.215689399745315,176.24951816903194 52.37500097975135,175.95462353876792 51.618381401058286,175.659728815197 49.93700456013903,175.26653570466442 48.42376540321857,174.57844736112747 47.58307698275894,174.38185059826355 45.73356245784089,173.89035850798246 44.89287403738126,173.69376159948297 43.54777256445959,173.10397062409902 42.707084143999964,172.7107764321845 41.02570730308071,172.02268619660754 40.35315656661987,171.62949154776288 38.67177972570062,170.94140051177237 37.83109130524099,170.64650419732789 36.14971446432173,170.25330896605738 35.309026043862104,170.0567112879944 34.55240646516904,169.8601135686622 32.95509846648201,169.46691800444387 32.03034120379016,169.17202122265007 31.273721625562757,168.77882536750985 29.676413626410067,168.18903127324302 28.83572520595044,167.89413408585824 27.23841720726341,167.3043394300039 26.481797628570348,167.00944196188357 25.725178050342947,166.61624519195175 24.04380120895803,166.22304825566243 22.530562052037567,165.7315518516698 21.94208015827462,165.53495321719674 20.34477215912193,161.89787097933004 19.504083738662302,160.5216739884927 19.924427948892117,159.14547496003797 20.34477215912193,158.65397481317632 20.681047527119517,157.9658741710591 21.269529421348125,156.7862718848628 21.858011315576732,155.31176692142617 22.19428668403998,154.52536331809824 22.530562052037567,153.7389590491075 23.28718163073063,152.16614851535996 23.79159468272701,151.47804306977196 24.211938892956823,150.69163622206543 24.884489629417658,149.3154226381448 25.304833840113133,148.5290139610297 26.229591102339327,147.05449589766795 26.64993531256914,146.36638666753424 26.98621068103239,145.67827692785067 27.74283025972545,144.40035748836817 28.24724331172183,143.8105479234946 28.667587521951646,143.122436291771 29.676413626410067,141.6479096506955 30.18082667887211,140.95979641756276 31.18965278333053,139.68187049007975 31.69406583532691,139.09205793077126 32.114410045556724,138.30564060306642 33.2913738344796,137.1260133633623 33.963924570940435,136.63450157165062 34.63647530740127,136.14298951992532 35.72937025362626,135.06166209134972 36.2337833060883,134.37354398175376 36.73819635855034,133.7837280536187 37.662953620776534,132.60409507446457 38.167366673238575,132.0142780233873 38.755848567932844,131.32615765742958 39.84874351415783,130.14652155863587 40.68943193461746,128.67197433003457 41.53012035507709,127.29572813899722 42.11860224977136,126.60760427895002 42.707084143999964,126.01778342225589 43.79997909069061,124.8381405856926 44.304392143152654,124.24831860576523 44.80880519468337,123.65849625156261 45.90170014183968,122.57715429662494 46.57425087830052,121.98733088170411 47.24680161429569,121.49581108376151 48.59190308721736,120.41446661221562 49.18038498144597,119.92294598196167 49.76886687614024,119.43142509186873 51.113968348596245,118.35007821838371 53.88824013620615,115.00772538175806 55.56961697759107,113.82806856918614 55.905892345588654,113.92637336091138 57.33506266027689,112.35349544789642 59.10050834342837,111.4687504520989 60.95002286834642,110.78061487263767 61.62257360527292,110.09247878391761 63.13581276172772,109.10942634480307 63.808363498188555,108.61789973534178 64.56498307641596,108.22467826039065 65.99415339156985,107.53654027899029 66.75077296979725,107.14331834652694 67.59146139025688,106.65179069695296 69.18876938940957,105.96365155099193 69.77725128363818,105.57042895274935 71.20642159832641,104.78398325759917 71.87897233478725,104.39076016069157 72.63559191301465,103.99753689701902 74.14883106993511,103.01447801006725 74.90545064862818,102.71956014126772 75.66207022732124,102.3263361704885 77.34344706777483,101.73649990250124 78.6885485406965,101.34327551577007 79.27703043492511,101.14666326006409 81.29468264430761,100.75343862373848 82.47164643276483,99.86868258356117 83.64861022122204,99.18053841451183 84.99371169460937,98.68900655314792 85.66626243107021,98.49239373579621 87.17950158752501,98.000861510518 88.9449472706765,97.50932902505156 89.78563569160178,97.21440940909088 90.45818642759696,96.91948969929945 92.13956326851621,96.3296499993885 93.06432053120807,96.03473000915255 95.58638579258695,95.34658300084993 96.42707421304658,95.0516626983881 97.51996915973723,94.36351496208226 100.29424094734713,93.97028745536227 101.0508605260402,93.57705978251761 101.72341126203537,93.28213891841006 103.32071926118806,92.79060393705731 104.07733883941546,92.59398987167515 104.83395841810852,92.39737576479092 106.34719757456332,91.90584031544859 107.10381715325639,91.61091892112745 107.86043673148379,91.41430460615084 109.62588241463527,90.92276863683946 110.38250199332833,90.62784693029243 111.22319041378796,90.33292513032211 112.82049841247499,89.84138858882943 113.57711799116805,89.54646653949749 114.41780641162768,89.34985178749776 116.09918325254694,88.76000728266081 116.85580283077434,88.46508488978725 117.69649125123397,88.07185488712275 119.29379925038666,87.58031714998651 120.05041882861406,87.28539438254666 120.80703840684146,86.99047152174171 122.48841524776071,86.40062551922165 123.329103668686,86.10570237739012 124.0857232469134,85.81077914213529 125.6830312460661,85.22093239077367 126.43965082475916,84.8277010153979 127.19627040298656,84.43446947343182 128.8776472439058,83.9429298118921 129.6342668221332,83.64800589031074 130.47495524259284,83.35308187484043 131.90412555774674,82.66492547508096 132.66074513597414,82.27169301803224 133.41736471420154,81.87846039410215 134.930603871122,81.19030290242517 135.68722344981506,80.79706982109929 136.5279118702747,80.5021449009655 138.04115102719516,79.81398638989776 138.79777060542256,79.32244428416016 139.4703213418834,78.92921041260706 140.81542281480506,78.2410507366294 141.4879735512659,77.94612500502262 142.07645544502884,77.55289055110188 143.42155691841617,76.86472985584987 144.09410765441135,76.5698036874528 144.8507272331044,76.17656865075696 146.36396639002487,75.4884069362306 147.79313670517877,74.80024471215438 148.5497562829405,74.5053178886883 149.222307019867,74.11208197823726 150.65147733455524,73.32560965855373 152.83726722747087,72.34251832246082 153.59388680569828,71.94928149698535 154.26643754262477,71.65435376833193 155.77967669954523,71.45773523068056 157.37698469823226,71.2611166514107 158.0495354346931,70.86787936813198 158.72208617115393,70.4746419187286 159.81498111784458,69.88478543196106 160.90787606453523,69.39323807385517 161.49635795876384,69.09830953425262 163.51401016768068,69.29492857086007 164.8591116401367,70.67126066435594 165.11131816683337,71.94928149698535 165.19538700859994,72.53913667274173 165.27945585083216,73.12899147445569 165.44759353483096,73.71884590166155 165.61573121882975,75.19348033115966 165.952006587293,76.96303855767474 166.1201442712918,77.65119918016717 166.28828195529059,78.53597637434723 166.62455732375383,80.2072198872338 166.70862616598606,81.09199464775156 166.8767638495192,81.97676856577164 167.1289703757502,83.45138989016414 167.1289703757502,84.23785363993375 167.38117690198123,84.92600887501612 167.63338342821226,86.40062551922165 167.80152111221105,87.08877915237099 167.96965879620984,87.97354736045236 168.3059341646731,89.34985178749776 168.39000300690532,90.13631054497091 168.39000300690532,90.92276863683946 168.5581406909041,92.39737576479092 168.64220953267068,93.18383194302442 168.7262783749029,93.87198055285262 168.97848490066826,95.44488974753767 169.0625537429005,96.23134334624046 169.14662258513272,97.01779627962969 169.3147602691315,98.68900655314792 169.98731100559235,100.85174479824491 170.40765521582216,101.6381938214181 170.7439305842854,102.22803015162935 171.16427479404956,103.80092520278413 171.33241247804835,104.58737173007103 171.5005501625128,105.27551189530641 171.75275668874383,106.84840178786544 171.8368255305104,107.63484573597088 172.0049632145092,108.42128901858814 172.25716974120587,109.99417358700885 172.34123858297244,110.78061487263767 172.5093762674369,111.5670554934186 172.84565163496882,112.94332497712458 173.01378931943327,113.72976376733277 173.18192700343207,114.41789716266794 173.4341335296631,115.89246700837975 173.60227121366188,116.67890330258524 173.77040889812633,117.3670345141436 174.0226154238917,118.93990394182038 174.1907531078905,119.72633765713545 174.4429596341215,121.39750709268264 174.69516615988687,123.06867352296831 174.86330384435132,123.95340747543378 174.94737268658355,124.73983694834169 175.53585458081216,126.31269389740191 175.70399226481095,127.19742476154352 175.78806110704318,127.98385148926172 175.95619879104197,129.6550060757436 176.12433647504076,130.44143072376028 176.29247415950522,131.32615765742958 176.71281836926937,133.09560899774078 176.79688721196726,133.98033340467373 176.9650248955004,134.76675439241808 177.2172314217314,136.4378967821831 177.3853691057302,137.32261800731067 177.55350679019466,138.1090361668612 177.88978215819225,139.78017254674342 178.14198868442327,140.5665886271163 178.31012636842206,141.35300404170994 178.56233289418742,142.92583287495654 178.73047057865188,143.8105479234946 178.89860826265067,144.59696059348062 179.48709015734494,146.07148255594075 179.9074343671091,146.85789331269916 180.32777857780457,148.43071282940218 180.32777857780457,149.80692772346083 179.82336552534252,151.08483972895192 178.89860826265067,151.96954701113282 177.72164447419345,152.55935139826033 176.460611843504,152.55935139826033 175.78806110704318,152.46105069306213 175.03144152835011,152.46105069306213 173.68634005542845,152.55935139826033 173.01378931943327,152.55935139826033 172.34123858297244,152.55935139826033 171.080205952283,152.85425345145632 169.4828979531303,153.24745604314376 168.7262783749029,153.64065846882295 167.88558995444328,153.83725961920572 166.20421311352402,154.3287623131182 165.36352469259873,154.4270628207014 164.60690511437133,154.6236638050177 163.00959711521864,154.82026474754093 162.16890869522467,155.01686564815463 161.32822027429938,155.11516608321108 159.47870574938133,155.50836771860486 158.55394848715514,155.70496847375762 157.79732890846208,155.90156918752473 156.11595206754282,156.29477049026173 155.35933248884976,156.4913710792316 154.68678175285459,156.7862718848628 152.58506070123985,157.6709737397614 151.91250996524468,157.9658741710591 151.4080969132483,158.26077450829325 149.81078891362995,158.75227486359654 149.13823817763478,158.94887493218994 148.3816185989417,159.14547496003797 146.78431060025468,159.53867489029653 146.02769102156162,159.73527479328914 145.187002601102,160.03017456940142 143.5896946019493,160.5216739884927 142.74900618195534,160.81657351501053 141.99238660326228,161.2097727388027 140.39507860457525,161.79957126185764 137.8730133427307,163.07746677810792 137.03232492227107,163.27406593231717 135.43501692358404,163.66726411617128 133.83770892489702,164.25706107966835 133.08108934620395,164.55195942136925 132.32446976797655,164.74855826352723 130.72716176882386,165.24005518766353 129.2139226119034,165.7315518516698 128.37323419144377,166.02644972520648 126.94406387675554,166.61624519195175 126.18744429852813,166.9111427848111 124.67420514114201,167.3043394300039 124.00165440514684,167.59923680475913 123.329103668686,167.89413408585824 121.81586451176554,168.38562934636138 120.30262535484508,169.07372227445012 119.54600577615201,169.27032016037265 118.03276661969721,169.76181469316361 117.27614704100415,170.0567112879944 116.60359630500898,170.3516077895183 115.09035714762285,170.84310175053542 113.66118683293462,171.2362967323279 112.90456725424156,171.53119285940193 112.14794767601416,171.82608889316907 110.71877736086026,172.2192834588932 110.13029546709731,172.51417927420698 109.37367588840425,172.80907499580644 107.94450557371601,173.20226914592786 107.01974831148982,173.39886615832802 106.26312873279676,173.69376159948297 104.7498895758763,174.2835522009409 103.82513231318444,174.4801489848178 102.98444389319047,174.77504408272216 100.46237863134593,175.36483399779536 98.78100179042667,175.75802706665127 98.10845105396584,176.1512199692661 97.26776263397187,176.44611453695688 96.17486768681556,176.8393071485334 95.16604158235714,177.5273938186001 93.98907779343426,178.11718198709423 93.2324582147412,178.3137779601966 92.55990747874603,178.5103738917387 91.29887484805658,178.9035656300257 90.71039295382798,179.10016143647954 89.95377337513492,179.29675720172236 88.69274074444547,179.59165077167563 88.10425885021687,179.78824643290136 86.92729506175965,179.98484205227578 85.32998706260696,180.08313984662527 84.5733674839139,180.37803316686768 83.64861022122204,180.5746286616777 82.21943990653381,180.86952182638925 81.37875148653984,181.06611721700756 80.53806306608021,181.164414896979 78.8566862246953,181.45930787437828 77.25937822600827,181.55760551261483 76.41868980554864,181.655903140374 75.57800138508901,181.655903140374 71.45862812455744,181.55760551261483 70.61793970409781,181.36101022560615 69.77725128363818,181.26271256641485 68.09587444225326,181.06611721700756 67.17111718002707,181.06611721700756 65.48974033910781,180.96781952679157 64.64905191911384,180.77122411533492 63.808363498188555,180.5746286616777 62.211055499501526,180.08313984662527 61.454435920808464,179.78824643290136 60.6978163421154,179.59165077167563 59.18457718519494,178.9035656300257 57.92354455497116,178.0188839850598 56.49437423981726,177.42909575393423 55.73775466158986,177.13420149788726 54.89706624066457,176.8393071485334 53.29975824197754,176.1512199692661 51.78651908505708,175.659728815197 51.02989950636402,175.46313228068175 50.27327992813662,175.26653570466442 48.760040771681815,174.67674572695978 48.00342119298875,174.4801489848178 47.33087045652792,174.1852537933737 45.817631299607456,173.79206005926244 44.97694287961349,173.59546312969178 43.463703722227365,173.20226914592786 42.6230153022334,172.80907499580644 40.94163846084848,172.12098483304726 40.26908772485331,171.72779022553004 39.59653698792681,171.43289416091284 38.08329783147201,171.0396992622409 37.32667825277895,170.84310175053542 36.570058674085885,170.64650419732789 35.14088835986331,170.1550101323519 34.38426878117025,169.95841243350878 33.711718045175076,169.76181469316361 32.114410045556724,169.36861908767605 31.357790467329323,169.07372227445012 30.68523973086849,168.77882536750985 29.256069416180253,168.18903127324302 28.58351867971942,167.89413408585824 27.910967943258584,167.59923680475913 26.39772878633812,167.10774112830404 25.64110920764506,166.81284359737765 24.968558471649885,166.61624519195175 23.53938815696165,166.12474899546942 22.78276857873425,165.82985115307383 22.026148999575526,165.53495321719674 20.09256563289091,161.70127153373323 19.756290264893323,159.93187465454685 20.008496791124344,159.3420749460929 20.260703316889703,158.85057490307372 20.512909843120724,158.26077450829325 20.84918521111831,157.1794728131499 21.017322895582765,156.4913710792316 21.269529421348125,155.90156918752473 21.605804789811373,155.31176692142617 22.110217841807753,154.23046179523226 22.446493210271,153.64065846882295 22.69869973650202,153.05085476796376 22.950906262733042,152.55935139826033 23.53938815696165,151.3797422500793 23.707525841426104,150.78993711451767 23.959732367191464,150.20013160497183 24.211938892956823,149.70862672728254 24.968558471649885,148.33241168770473 25.89331573434174,146.95619461033493 26.39772878633812,146.26808530749986 26.902141838800162,145.57997549505671 27.74283025972545,144.20375434169546 28.331312153488398,143.51564300095197 28.83572520595044,142.92583287495654 29.760482468176633,141.5496077913558 30.18082667887211,140.95979641756276 30.517102046869695,140.27168267488014 31.44185930909589,139.09205793077126 31.862203519791365,138.50224499718752 32.28254773002118,137.81412943499163 33.2913738344796,136.83110631926684 33.963924570940435,136.33959437190788 34.55240646516904,135.84808216418605 35.561232569627464,134.76675439241808 36.14971446432173,134.37354398175376 36.65412751631811,133.7837280536187 37.57888477900997,132.60409507446457 38.08329783147201,132.0142780233873 38.58771088346839,131.32615765742958 39.68060583015904,130.0482184829889 40.43722540838644,128.47536785603734 41.53012035507709,127.09912137384526 42.11860224977136,126.50930082885316 42.707084143999964,126.01778342225589 43.63184140669182,124.8381405856926 44.22032330092043,124.24831860576523 44.72473635338247,123.75680000317516 45.90170014183968,122.57715429662494 46.57425087830052,122.08563481038436 47.16273277299479,121.59411506407196 48.339696561452,120.61107479140628 48.84410961344838,120.11955426522763 49.43259150767699,119.62803347915178 50.5254864548333,118.74329540895997 51.113968348596245,118.2517738948809 52.459069821517915,116.38398977031466 55.56961697759107,113.63145895506022 56.83064960781485,112.94332497712458 58.259819922968745,111.66536052402807 59.52085255365819,110.87891998677514 60.19340329011902,110.48569946881616 60.78188518434763,110.09247878391761 61.958848973270506,109.30603691592114 62.54733086703345,108.71620507788612 63.72429465595633,108.12637286551762 64.39684539241716,107.63484573597088 64.98532728664577,107.24162384541705 66.49856644356623,106.455179564422 67.17111718002707,106.06195717433002 67.8436679164879,105.66873461788055 69.10470054717734,104.9805947439163 69.77725128363818,104.68567749904469 70.53387086186558,104.39076016069157 71.87897233478725,103.80092520278413 72.63559191301465,103.50600758340443 73.47628033393994,103.11278394568944 75.15765717439353,102.42464217887027 75.9142767530866,102.22803015162935 76.67089633177966,101.8348059731652 78.26820433046669,101.34327551577007 78.8566862246953,101.14666326006409 79.44516811938956,100.950050962565 80.62213190784678,100.55682624306064 81.21061380254105,100.36021382093895 81.71502685407177,100.06529510975815 82.30350874876603,99.86868258356117 83.39640369545668,99.27884475549217 84.5733674839139,98.78731294616591 85.16184937860817,98.68900655314792 85.75033127330244,98.49239373579621 86.42288200929761,98.19747443171218 87.68391463998705,97.80424854758894 88.44053421868011,97.60763554280857 89.02901611290872,97.41102249687538 90.62632411206141,96.91948969929945 91.46701253252104,96.62456989625935 92.307700952515,96.3296499993885 93.82094010943547,95.83811663021334 94.6616285298951,95.6415032093646 95.50231695035473,95.54319648368983 97.09962494950742,94.95335590996547 97.94031336996704,94.65843548288103 98.78100179042667,94.36351496208226 100.3783097891137,93.87198055285262 101.13492936780676,93.67536671605194 101.8074801042676,93.47875283838948 103.40478810295463,93.08552495698677 104.16140768118203,92.79060393705731 105.00209610164165,92.4956828232389 106.51533525902778,92.10245452640811 107.27195483725518,91.90584031544859 108.02857441594824,91.61091892112745 109.62588241463527,91.0210758515168 110.38250199332833,90.7261541763437 111.13912157155573,90.52953967411304 112.56829188670963,90.03800323652104 113.32491146493703,89.74308124935487 113.99746220139787,89.54646653949749 115.34256367385387,89.05492958193645 116.09918325254694,88.76000728266081 116.93987167300656,88.56339236465283 118.53717967215925,87.97354736045236 119.29379925038666,87.67862471810076 120.05041882861406,87.383701981802 121.64772682776675,86.69554856716422 122.40434640599415,86.30231781571638 123.16096598468721,86.00739464280196 124.67420514114201,85.41754801612115 125.5148935620673,85.12262456258759 126.2715131402947,84.8277010153979 127.78475229721516,84.33616156206699 128.54137187544256,84.04123776493361 129.3820602959022,83.844621848315 130.8112306110561,83.15646581252804 131.48378134751692,82.76323356333887 132.1563320835121,82.46830926730763 133.66957124089822,81.78015221236274 134.42619081912562,81.4852276040474 135.09874155558646,81.19030290242517 136.5279118702747,80.5021449009655 137.20046260673553,80.1089115284849 137.9570821854286,79.715677989705 139.3021836578846,78.92921041260706 140.058803236112,78.63428489939542 140.73135397257283,78.2410507366294 142.16052428726107,77.65119918016717 142.74900618195534,77.25796460133279 143.42155691841617,76.96303855767474 144.8507272331044,76.27487742563244 145.52327796909958,75.97995107021416 146.19582870556042,75.68502462090692 148.3816185989417,74.89855363225797 149.89485775586218,74.70193578139879 150.567408492323,74.30869995424291 151.32402807101607,73.91546396084595 152.7531983857043,73.12899147445569 153.34168027993292,72.7357549815788 154.9389882790856,71.94928149698535 155.77967669954523,71.55604450457031 157.37698469823226,70.86787936813198 158.30174196092412,70.4746419187286 159.81498111784458,69.589857048064 160.6556695383042,69.19661905779503 162.8414594316855,69.0 164.94318048236892,71.06449803058058 165.11131816683337,71.75266302167438 165.19538700859994,72.44082750286907 165.44759353483096,73.71884590166155 165.69980006106198,74.30869995424291 165.7838689032942,75.09517144208075 165.86793774552643,75.68502462090692 166.1201442712918,76.96303855767474 166.28828195529059,77.65119918016717 166.45641963975504,78.43766783899628 166.79269500728697,80.40383657353232 166.96083269175142,81.3869193806895 167.21303921798244,83.25477384903934 167.38117690198123,84.13954570778878 167.71745227044448,85.81077914213529 167.88558995444328,86.69554856716422 168.39000300690532,89.34985178749776 168.47407184867188,90.92276863683946 168.64220953267068,91.8075331945438 168.7262783749029,92.59398987167515 168.81034721713513,94.26520810090005 168.8944160589017,95.14996947639156 168.97848490066826,96.03473000915255 169.0625537429005,97.80424854758894 169.23069142736495,98.68900655314792 169.73510447936133,100.4585200372967 170.15544868959114,101.34327551577007 170.91206826781854,102.91617206402589 171.080205952283,104.78398325759917 171.33241247804835,105.66873461788055 171.6686878465116,107.73315118288156 171.92089437274262,108.61789973534178 172.25716974120587,110.38739431311842 172.42530742520466,111.27214033831842 172.67751395143569,113.04162986238953 172.92972047720104,113.82806856918614 173.09785816119984,114.61450661061099 173.4341335296631,116.38398977031466 173.60227121366188,117.17042564845178 173.68634005542845,117.95686086144997 174.0226154238917,119.52972929086536 174.10668426612392,120.41446661221562 174.52702847588807,122.28224263613811 174.69516615988687,123.1669773372123 175.11551037058234,125.13305143499747 175.53585458081216,126.01778342225589 176.208405317273,128.8685807621805 176.29247415950522,129.75330919318367 176.54468068527058,131.6210664479877 176.6287495275028,132.50579225848196 177.13316257949919,134.275241352967 177.2172314217314,135.25826717203017 177.55350679019466,137.02771102584666 177.72164447419345,137.81412943499163 177.97385100042447,139.78017254674342 178.14198868442327,140.66489059012383 178.73047057865188,142.5326259159483 178.9826771048829,143.51564300095197 179.48709015734494,145.3833725976874 179.9074343671091,146.26808530749986 180.4959162613377,148.1358093728777 177.46943794796243,152.46105069306213 176.71281836926937,152.46105069306213 175.95619879104197,152.55935139826033" stroke="#4DD2FF" stroke-linecap="round" stroke-linejoin="round" stroke-width="0.5"><title>2021-03-21 10.0km</title><desc>9223370420535914707</desc></polyline></svg>