<?xml version="1.0" encoding="utf-8" ?>
<svg baseProfile="full" height="300mm" version="1.1" viewBox="0,0,200,300" width="200mm" xmlns="http://www.w3.org/2000/svg" xmlns:ev="http://www.w3.org/2001/xml-events" xmlns:xlink="http://www.w3.org/1999/xlink"><defs /><rect fill="#222222" height="300" width="200" x="0" y="0" /><text fill="#FFFFFF" style="font-size:12px; font-family:Arial; font-weight:bold;" x="10" y="20">Over 10km Runs</text><text fill="#FFFFFF" style="font-size:4px; font-family:Arial" x="10" y="280">ATHLETE</text><text fill="#FFFFFF" style="font-size:9px; font-family:Arial" x="10" y="290">bobwng</text><text fill="#FFFFFF" style="font-size:4px; font-family:Arial" x="120" y="280">STATISTICS</text><text fill="#FFFFFF" style="font-size:3px; font-family:Arial" x="120" y="285">Number: 1</text><text fill="#FFFFFF" style="font-size:3px; font-family:Arial" x="120" y="290">Weekly: 1.0</text><text fill="#FFFFFF" style="font-size:3px; font-family:Arial" x="141" y="285">Total: 10.0 km</text><text fill="#FFFFFF" style="font-size:3px; font-family:Arial" x="141" y="290">Avg: 10.0 km</text><text fill="#FFFFFF" style="font-size:3px; font-family:Arial" x="167" y="285">Min: 10.0 km</text><text fill="#FFFFFF" style="font-size:3px; font-family:Arial" x="167" y="290">Max: 10.0 km</text><polyline fill="none" points="127.78475229721516,230.80341516953195 130.55902408482507,229.13244243210647 130.1386798741296,226.47853838122683 130.0546110328287,223.03828111290932 129.71833566436544,221.4655878356425 128.70950955990702,217.9270182334585 128.45730303321034,214.68331759847933 128.20509650744498,213.11061018606415 127.78475229721516,210.75154407828813 127.36440808698535,208.39247198367957 127.02813271898776,206.8197539280518 126.77592619229108,204.55896706093336 126.60778850829229,202.10158379509812 126.2715131402947,200.72544632840436 125.85116893006489,198.36634878913173 125.17861819360405,196.00724526221165 124.59013629890978,193.35324663773645 124.42199861491099,190.20775697362842 124.16979208914563,187.75033576774877 124.00165440514684,185.29290806455538 123.4972413526848,182.7371763610863 122.90875945845619,179.88654424785636 122.57248408999294,177.42909575393423 122.32027756422758,175.06993908726145 119.04159272415563,173.30056765733752 118.95752388192341,173.30056765733752 118.95752388192341,173.30056765733752 118.95752388192341,173.30056765733752 118.95752388192341,173.30056765733752 118.95752388192341,173.30056765733752 118.95752388192341,173.20226914592786 118.3690419876948,171.53119285940193 115.34256367385387,170.44990660250187 112.73642957070842,171.43289416091284 110.38250199332833,172.2192834588932 108.53298746747896,172.90737354906742 107.27195483725518,173.30056765733752 105.5065091541037,173.89035850798246 104.07733883941546,174.2835522009409 102.14375547226518,174.9716407628148 100.12610326334834,175.26653570466442 97.51996915973723,176.0529217593139 94.74569737212732,177.5273938186001 91.97142558451742,178.6086718417355 89.28122263913974,179.49335292557953 86.5910196932964,179.98484205227578 83.48047253768891,180.672926393745 80.95840727584437,181.164414896979 79.27703043492511,181.36101022560615 76.83903401577845,181.655903140374 74.23289991216734,181.655903140374 70.61793970409781,181.45930787437828 66.24635991780087,181.36101022560615 64.48091423464939,180.86952182638925 61.958848973270506,180.08313984662527 58.764232974965125,178.70696978160413 57.41913150250912,177.72398991620867 54.89706624066457,176.8393071485334 52.37500097975135,175.95462353876792 49.93700456013903,175.26653570466442 47.58307698275894,174.38185059826355 44.89287403738126,173.69376159948297 42.707084143999964,172.7107764321845 40.35315656661987,171.62949154776288 37.83109130524099,170.64650419732789 35.309026043862104,170.0567112879944 32.95509846648201,169.46691800444387 31.273721625562757,168.77882536750985 28.83572520595044,167.89413408585824 26.481797628570348,167.00944196188357 24.04380120895803,166.22304825566243 21.94208015827462,165.53495321719674 19.504083738662302,160.5216739884927 20.34477215912193,158.65397481317632 21.269529421348125,156.7862718848628 22.19428668403998,154.52536331809824 23.28718163073063,152.16614851535996 24.211938892956823,150.69163622206543 25.304833840113133,148.5290139610297 26.64993531256914,146.36638666753424 27.74283025972545,144.40035748836817 28.667587521951646,143.122436291771 30.18082667887211,140.95979641756276 31.69406583532691,139.09205793077126 33.2913738344796,137.1260133633623 34.63647530740127,136.14298951992532 36.2337833060883,134.37354398175376 37.662953620776534,132.60409507446457 38.755848567932844,131.32615765742958 40.68943193461746,128.67197433003457 42.11860224977136,126.60760427895002 43.79997909069061,124.8381405856926 44.80880519468337,123.65849625156261 46.57425087830052,121.98733088170411 48.59190308721736,120.41446661221562 49.76886687614024,119.43142509186873 53.88824013620615,115.00772538175806 55.905892345588654,113.92637336091138 59.10050834342837,111.4687504520989 61.62257360527292,110.09247878391761 63.808363498188555,108.61789973534178 65.99415339156985,107.53654027899029 67.59146139025688,106.65179069695296 69.77725128363818,105.57042895274935 71.87897233478725,104.39076016069157 74.14883106993511,103.01447801006725 75.66207022732124,102.3263361704885 78.6885485406965,101.34327551577007 81.29468264430761,100.75343862373848 83.64861022122204,99.18053841451183 85.66626243107021,98.49239373579621 88.9449472706765,97.50932902505156 90.45818642759696,96.91948969929945 93.06432053120807,96.03473000915255 96.42707421304658,95.0516626983881 100.29424094734713,93.97028745536227 101.72341126203537,93.28213891841006 104.07733883941546,92.59398987167515 106.34719757456332,91.90584031544859 107.86043673148379,91.41430460615084 110.38250199332833,90.62784693029243 112.82049841247499,89.84138858882943 114.41780641162768,89.34985178749776 116.85580283077434,88.46508488978725 119.29379925038666,87.58031714998651 120.80703840684146,86.99047152174171 123.329103668686,86.10570237739012 125.6830312460661,85.22093239077367 127.19627040298656,84.43446947343182 129.6342668221332,83.64800589031074 131.90412555774674,82.66492547508096 133.41736471420154,81.87846039410215 135.68722344981506,80.79706982109929 138.04115102719516,79.81398638989776 139.4703213418834,78.92921041260706 141.4879735512659,77.94612500502262 143.42155691841617,76.86472985584987 144.8507272331044,76.17656865075696 147.79313670517877,74.80024471215438 149.222307019867,74.11208197823726 152.83726722747087,72.34251832246082 154.26643754262477,71.65435376833193 157.37698469823226,71.2611166514107 158.72208617115393,70.4746419187286 160.90787606453523,69.39323807385517 163.51401016768068,69.29492857086007 165.11131816683337,71.94928149698535 165.27945585083216,73.12899147445569 165.61573121882975,75.19348033115966 166.1201442712918,77.65119918016717 166.62455732375383,80.2072198872338 166.8767638495192,81.97676856577164 167.1289703757502,84.23785363993375 167.63338342821226,86.40062551922165 167.96965879620984,87.97354736045236 168.39000300690532,90.13631054497091 168.5581406909041,92.39737576479092 168.7262783749029,93.87198055285262 169.0625537429005,96.23134334624046 169.3147602691315,98.68900655314792 170.40765521582216,101.6381938214181 171.16427479404956,103.80092520278413 171.5005501625128,105.27551189530641 171.8368255305104,107.63484573597088 172.25716974120587,109.99417358700885 172.5093762674369,111.5670554934186 173.01378931943327,113.72976376733277 173.4341335296631,115.89246700837975 173.77040889812633,117.3670345141436 174.1907531078905,119.72633765713545 174.69516615988687,123.06867352296831 174.94737268658355,124.73983694834169 175.70399226481095,127.19742476154352 175.95619879104197,129.6550060757436 176.29247415950522,131.32615765742958 176.79688721196726,133.98033340467373 177.2172314217314,136.4378967821831 177.55350679019466,138.1090361668612 178.14198868442327,140.5665886271163 178.56233289418742,142.92583287495654 178.89860826265067,144.59696059348062 179.9074343671091,146.85789331269916 180.32777857780457,149.80692772346083 178.89860826265067,151.96954701113282 176.460611843504,152.55935139826033 175.03144152835011,152.46105069306213 173.01378931943327,152.55935139826033 171.080205952283,152.85425345145632 168.7262783749029,153.64065846882295 166.20421311352402,154.3287623131182 164.60690511437133,154.6236638050177 162.16890869522467,155.01686564815463 159.47870574938133,155.50836771860486 157.79732890846208,155.90156918752473 155.35933248884976,156.4913710792316 152.58506070123985,157.6709737397614 151.4080969132483,158.26077450829325 149.13823817763478,158.94887493218994 146.78431060025468,159.53867489029653 145.187002601102,160.03017456940142 142.74900618195534,160.81657351501053 140.39507860457525,161.79957126185764 137.03232492227107,163.27406593231717 133.83770892489702,164.25706107966835 132.32446976797655,164.74855826352723 129.2139226119034,165.7315518516698 126.94406387675554,166.61624519195175 124.67420514114201,167.3043394300039 123.329103668686,167.89413408585824 120.30262535484508,169.07372227445012 118.03276661969721,169.76181469316361 116.60359630500898,170.3516077895183 113.66118683293462,171.2362967323279 112.14794767601416,171.82608889316907 110.13029546709731,172.51417927420698 107.94450557371601,173.20226914592786 106.26312873279676,173.69376159948297 103.82513231318444,174.4801489848178 100.46237863134593,175.36483399779536 98.10845105396584,176.1512199692661 96.17486768681556,176.8393071485334 93.98907779343426,178.11718198709423 92.55990747874603,178.5103738917387 90.71039295382798,179.10016143647954 88.69274074444547,179.59165077167563 86.92729506175965,179.98484205227578 84.5733674839139,180.37803316686768 82.21943990653381,180.86952182638925 80.53806306608021,181.164414896979 77.25937822600827,181.55760551261483 75.57800138508901,181.655903140374 70.61793970409781,181.36101022560615 68.09587444225326,181.06611721700756 65.48974033910781,180.96781952679157 63.808363498188555,180.5746286616777 61.454435920808464,179.78824643290136 59.18457718519494,178.9035656300257 56.49437423981726,177.42909575393423 54.89706624066457,176.8393071485334 51.78651908505708,175.659728815197 50.27327992813662,175.26653570466442 48.00342119298875,174.4801489848178 45.817631299607456,173.79206005926244 43.463703722227365,173.20226914592786 40.94163846084848,172.12098483304726 39.59653698792681,171.43289416091284 37.32667825277895,170.84310175053542 35.14088835986331,170.1550101323519 33.711718045175076,169.76181469316361 31.357790467329323,169.07372227445012 29.256069416180253,168.18903127324302 27.910967943258584,167.59923680475913 25.64110920764506,166.81284359737765 23.53938815696165,166.12474899546942 22.026148999575526,165.53495321719674 19.756290264893323,159.93187465454685 20.260703316889703,158.85057490307372 20.84918521111831,157.1794728131499 21.269529421348125,155.90156918752473 22.110217841807753,154.23046179523226 22.69869973650202,153.05085476796376 23.53938815696165,151.3797422500793 23.959732367191464,150.20013160497183 24.968558471649885,148.33241168770473 26.39772878633812,146.26808530749986 27.74283025972545,144.20375434169546 28.83572520595044,142.92583287495654 30.18082667887211,140.95979641756276 31.44185930909589,139.09205793077126 32.28254773002118,137.81412943499163 33.963924570940435,136.33959437190788 35.561232569627464,134.76675439241808 36.65412751631811,133.7837280536187 38.08329783147201,132.0142780233873 39.68060583015904,130.0482184829889 41.53012035507709,127.09912137384526 42.707084143999964,126.01778342225589 44.22032330092043,124.24831860576523 45.90170014183968,122.57715429662494 47.16273277299479,121.59411506407196 48.84410961344838,120.11955426522763 50.5254864548333,118.74329540895997 52.459069821517915,116.38398977031466 56.83064960781485,112.94332497712458 59.52085255365819,110.87891998677514 60.78188518434763,110.09247878391761 62.54733086703345,108.71620507788612 64.39684539241716,107.63484573597088 66.49856644356623,106.455179564422 67.8436679164879,105.66873461788055 69.77725128363818,104.68567749904469 71.87897233478725,103.80092520278413 73.47628033393994,103.11278394568944 75.9142767530866,102.22803015162935 78.26820433046669,101.34327551577007 79.44516811938956,100.950050962565 81.21061380254105,100.36021382093895 82.30350874876603,99.86868258356117 84.5733674839139,98.78731294616591 85.75033127330244,98.49239373579621 87.68391463998705,97.80424854758894 89.02901611290872,97.41102249687538 91.46701253252104,96.62456989625935 93.82094010943547,95.83811663021334 95.50231695035473,95.54319648368983 97.94031336996704,94.65843548288103 100.3783097891137,93.87198055285262 101.8074801042676,93.47875283838948 104.16140768118203,92.79060393705731 106.51533525902778,92.10245452640811 108.02857441594824,91.61091892112745 110.38250199332833,90.7261541763437 112.56829188670963,90.03800323652104 113.99746220139787,89.54646653949749 116.09918325254694,88.76000728266081 118.53717967215925,87.97354736045236 120.05041882861406,87.383701981802 122.40434640599415,86.30231781571638 124.67420514114201,85.41754801612115 126.2715131402947,84.8277010153979 128.54137187544256,84.04123776493361 130.8112306110561,83.15646581252804 132.1563320835121,82.46830926730763 134.42619081912562,81.4852276040474 136.5279118702747,80.5021449009655 137.9570821854286,79.715677989705 140.058803236112,78.63428489939542 142.16052428726107,77.65119918016717 143.42155691841617,76.96303855767474 145.52327796909958,75.97995107021416 148.3816185989417,74.89855363225797 150.567408492323,74.30869995424291 152.7531983857043,73.12899147445569 154.9389882790856,71.94928149698535 157.37698469823226,70.86787936813198 159.81498111784458,69.589857048064 162.8414594316855,69.0 165.11131816683337,71.75266302167438 165.44759353483096,73.71884590166155 165.7838689032942,75.09517144208075 166.1201442712918,76.96303855767474 166.45641963975504,78.43766783899628 166.96083269175142,81.3869193806895 167.38117690198123,84.13954570778878 167.88558995444328,86.69554856716422 168.47407184867188,90.92276863683946 168.7262783749029,92.59398987167515 168.8944160589017,95.14996947639156 169.0625537429005,97.80424854758894 169.73510447936133,100.4585200372967 170.91206826781854,102.91617206402589 171.33241247804835,105.66873461788055 171.92089437274262,108.61789973534178 172.42530742520466,111.27214033831842 172.92972047720104,113.82806856918614 173.4341335296631,116.38398977031466 173.68634005542845,117.95686086144997 174.10668426612392,120.41446661221562 174.69516615988687,123.1669773372123 175.53585458081216,126.01778342225589 176.29247415950522,129.75330919318367 176.6287495275028,132.50579225848196 177.2172314217314,135.25826717203017 177.72164447419345,137.81412943499163 178.14198868442327,140.66489059012383 178.9826771048829,143.51564300095197 179.9074343671091,146.26808530749986 177.46943794796243,152.46105069306213 175.95619879104197,152.55935139826033" stroke="#4DD2FF" stroke-linecap="round" stroke-linejoin="round" stroke-width="0.5"><title>2021-03-21 10.0km</title><desc>9223370420535914707</desc></polyline></svg>