<?xml version="1.0" encoding="utf-8" ?>
<svg baseProfile="full" height="200mm" version="1.1" viewBox="0,0,200,200" width="200mm" xmlns="http://www.w3.org/2000/svg" xmlns:ev="http://www.w3.org/2001/xml-events" xmlns:xlink="http://www.w3.org/1999/xlink"><defs /><rect fill="#1a1a1a" height="200" width="200" x="0" y="0" /><text alignment-baseline="middle" fill="#e1ed5e" style="dominant-baseline: central; font-size:9.0px; font-family:Arial;" text-anchor="middle" x="100.0" y="100.0">2024</text><line stroke="#e1ed5e" stroke-width="0.3" x1="100.0" x2="100.0" y1="15.0" y2="10.0" /><path d="M 100.0 14.0 a86.0,86.0 0 0,1 42.35913384403234,11.155469271406648" fill="none" id="id49" stroke="none" /><text fill="#e1ed5e" style="font-size:6.75px; font-family:Arial;" text-anchor="middle"><textPath startOffset="22.145653131862478" xlink:href="#id49">January</textPath></text><path d="M 105.3480935250658 79.69241777938227 l 15.159656448007553 -57.563684761934525 a80.52640579602459,80.52640579602459 0 0,0 1.3337419834160813,0.3635173084672108 l -16.145579832358326 57.294966959323176" fill="#42ffd8" stroke="none" /><path d="M 110.34350942703115 81.72400993836675 l 28.91565558338929 -51.091192771244465 a79.70626130665838,79.70626130665838 0 0,0 1.1849950066012434,0.6841571860495903 l -29.78844305785093 50.5872886879187" fill="#40ffc3" stroke="none" /><line stroke="#e1ed5e" stroke-width="0.3" x1="143.13028292997686" x2="145.6673583964461" y1="26.7553504044142" y2="22.446841604673864" /><path d="M 143.63769802327073 25.89364864446614 a86.0,86.0 0 0,1 29.32050498858742,28.57503671076993" fill="none" id="id50" stroke="none" /><text fill="#e1ed5e" style="font-size:6.75px; font-family:Arial;" text-anchor="middle"><textPath startOffset="20.669276256404974" xlink:href="#id50">February</textPath></text><path d="M 113.86319453409587 84.22622945171908 l 37.83552985873355 -43.049887606819 a78.31335047483148,78.31335047483148 0 0,0 1.0021683875821632,0.8961451518529041 l -38.56896327313909 42.394046925082705" fill="#3bff9e" stroke="none" /><path d="M 114.39649973595853 84.71141617570332 l 40.552101820041926 -43.06492684319464 a80.15286033686583,80.15286033686583 0 0,0 0.9936188039181478,0.9518643375869204 l -41.285393109825385 42.362450375302146" fill="#41ffcf" stroke="none" /><path d="M 114.91283532996326 85.21462403516908 l 36.14126089228821 -35.832363082684054 a71.89350629474983,71.89350629474983 0 0,0 0.8613978616812501,0.8838700910947312 l -36.75104555512027 35.20667029952158" fill="#71ff27" stroke="none" /><path d="M 115.41159269507618 85.73525988315684 l 43.940735658720165 -40.67088892861815 a80.87411340866365,80.87411340866365 0 0,0 0.9342974216817401,1.026956531246574 l -44.63243078124378 39.910594821813895" fill="#43ffe1" stroke="none" /><line stroke="#e1ed5e" stroke-width="0.3" x1="172.87174338648825" x2="177.1583165268699" y1="56.24261187166439" y2="53.66864786411523" /><path d="M 173.72905801456457 55.72781907015455 a86.0,86.0 0 0,1 12.242430191666344,42.057860355516425" fill="none" id="id51" stroke="none" /><text fill="#e1ed5e" style="font-size:6.75px; font-family:Arial;" text-anchor="middle"><textPath startOffset="22.145653131862474" xlink:href="#id51">March</textPath></text><path d="M 118.36410011445183 89.81374322990088 l 51.48794581102928 -28.559495609771616 a79.87829271746975,79.87829271746975 0 0,0 0.6548295026714016,1.204812529931397 l -51.97062066331602 27.67142824636562" fill="#40ffc8" stroke="none" /><path d="M 118.8641267826498 90.77261029715802 l 52.73972865964825 -25.79764410893972 a79.71113540602698,79.71113540602698 0 0,0 0.5907002876544691,1.234336413344555 l -53.17480820526263 24.888495193530062" fill="#40ffc3" stroke="none" /><path d="M 119.4528033332814 92.08871423366111 l 56.825826258639815 -23.11056883360723 a82.34552079646905,82.34552079646905 0 0,0 0.5212915545374834,1.3139952502817134 l -57.21417648814342 22.13167256611195" fill="#48f9ff" stroke="none" /><path d="M 120.05942366710727 93.78553927170692 l 56.55113383966369 -17.519685820450867 a80.2027881927774,80.2027881927774 0 0,0 0.39613944463449996,1.3186193738163787 l -56.84354960430182 16.546328843043764" fill="#41ffd0" stroke="none" /><path d="M 120.65975698304385 96.23510406497455 l 46.90487862713423 -8.547631369579749 a68.67734935015177,68.67734935015177 0 0,0 0.20140509970850856,1.1616510937962055 l -47.04469854433498 7.741187242862951" fill="#caff1d" stroke="none" /><path d="M 120.86939407059847 97.66154086499901 l 51.6201433663604 -5.78414473351618 a72.9431952373154,72.9431952373154 0 0,0 0.12875379677095294,1.245576187730215 l -51.71182955561302 4.897164023503033" fill="#56ff2b" stroke="none" /><path d="M 120.93736805541906 98.37931529534042 l 57.97734165546247 -4.487812918468081 a79.15077480331102,79.15077480331102 0 0,0 0.09323222092141954,1.355576030537631 l -58.04583783754895 3.491893463776116" fill="#3effb4" stroke="none" /><path d="M 120.98066250479742 99.09900007780936 l 55.947974721404904 -2.4026467638561604 a76.99954095257237,76.99954095257237 0 0,0 0.04537587716129017,1.3210691541262058 l -55.98097528556304 1.4418713451658347" fill="#37ff79" stroke="none" /><line stroke="#e1ed5e" stroke-width="0.3" x1="184.99686870605535" x2="189.99668451229388" y1="99.2704041080226" y2="99.22748670261217" /><path d="M 185.99683186730306 99.26182062694052 a86.0,86.0 0 0,1 -10.086455211305974,41.156179273409016" fill="none" id="id52" stroke="none" /><text fill="#e1ed5e" style="font-size:6.75px; font-family:Arial;" text-anchor="middle"><textPath startOffset="21.40746469413373" xlink:href="#id52">April</textPath></text><path d="M 120.99922638620191 99.81974689727618 l 58.368568550951906 -0.5010239610431894 a79.37071885540482,79.37071885540482 0 0,0 0.0,1.3625541275340254 l -58.368568550951906 -0.5010239610431823" fill="#3fffba" stroke="none" /><path d="M 120.99303781780057 100.54070618675476 l 58.976740518624446 1.5190316308586085 a79.99629970851313,79.99629970851313 0 0,0 -0.0471418689517611,1.372484078239483 l -58.94197396267584 -2.531221973662202" fill="#41ffcb" stroke="none" /><path d="M 120.96210409425399 101.26102812881392 l 59.285493042526895 3.5664680425721627 a80.3926710932771,80.3926710932771 0 0,0 -0.0946950587717796,1.376845371833054 l -59.21553402259005 -4.58365683855956" fill="#42ffd5" stroke="none" /><path d="M 120.82617615685814 102.69636545807757 l 37.99948507067492 4.919794118593473 a59.31664442257168,59.31664442257168 0 0,0 -0.13940960294279617,1.0086984400780268 l -37.909430951176915 -5.571380866871586" fill="#ff0000" stroke="none" /><path d="M 120.16314734710363 105.8691983318838 l 57.984089092459875 16.87832326564596 a81.390664710218,81.390664710218 0 0,0 -0.4020066314806916,1.3381493306282763 l -57.68580614097556 -17.87121019986496" fill="#45ffee" stroke="none" /><path d="M 119.83427380445688 106.89939002012753 l 55.619930264809156 19.347498959250213 a79.88889843290008,79.88889843290008 0 0,0 -0.46168110139016394,1.291404209104979 l -55.27960899337504 -20.299438124736113" fill="#40ffc8" stroke="none" /><path d="M 119.4528033332814 107.91128576633889 l 47.26005265235437 19.220251984212506 a72.01892455785335,72.01892455785335 0 0,0 -0.4755792162119465,1.1412169903740377 l -46.92314759160593 -20.02870148402782" fill="#6eff28" stroke="none" /><path d="M 119.16976305983485 108.57439118712176 l 49.86588320488629 22.30437528911762 a75.62683832001593,75.62683832001593 0 0,0 -0.5402476486617782,1.1805386115033139 l -49.47565109136946 -23.157102882835623" fill="#33ff51" stroke="none" /><path d="M 118.70294669586154 109.54985784667822 l 53.22600141988889 27.177575575270467 a80.76309765482,80.76309765482 0 0,0 -0.6410741287450806,1.229344170661006 l -52.751619222168856 -28.087265989035973" fill="#43ffde" stroke="none" /><line stroke="#e1ed5e" stroke-width="0.3" x1="174.33088141563837" x2="178.70328620479359" y1="141.23008692659167" y2="143.65538615756765" /><path d="M 175.20536237346943 141.71514677278685 a86.0,86.0 0 0,1 -30.301960400862466,31.631185727798858" fill="none" id="id53" stroke="none" /><text fill="#e1ed5e" style="font-size:6.75px; font-family:Arial;" text-anchor="middle"><textPath startOffset="22.145653131862474" xlink:href="#id53">May</textPath></text><path d="M 118.18653347947321 110.5 l 51.06312296676169 29.481307790522806 a79.96261558104564,79.96261558104564 0 0,0 -0.6965364093600236,1.182871100497326 l -50.5495128472719 -30.353530059313684" fill="#40ffca" stroke="none" /><path d="M 117.01052211995028 112.31430620078461 l 47.80203785011531 34.60498901544217 a80.0130501447157,80.0130501447157 0 0,0 -0.8149823729948849,1.105680110864259 l -47.2009534575366 -35.420475435575305" fill="#41ffcb" stroke="none" /><path d="M 116.1254893667686 113.45245675266167 l 45.569418453085255 38.01562960609338 a80.34441837696339,80.34441837696339 0 0,0 -0.8926090285335454,1.0514911911790388 l -44.9101148610446 -38.79228757972197" fill="#42ffd4" stroke="none" /><path d="M 115.6541949942343 113.99807769240083 l 39.519963493782505 35.33899504832832 a74.01577204545526,74.01577204545526 0 0,0 -0.8550664986757507,0.9398678676481812 l -38.90749929426488 -36.01220049153417" fill="#3bff2e" stroke="none" /><path d="M 115.16444852881244 114.52719865689866 l 36.82669275125965 35.279138602214296 a71.99826388721411,71.99826388721411 0 0,0 -0.8626530232500126,0.8851579974379802 l -36.21565292685883 -35.90611929172001" fill="#6eff28" stroke="none" /><path d="M 114.39649973595853 115.28858382429668 l 40.970073565314706 43.50879835231081 a80.76255066518951,80.76255066518951 0 0,0 -1.0174936427979282,0.9417769254756901 l -40.21715015120281 -44.20569302391888" fill="#43ffde" stroke="none" /><path d="M 113.86319453409587 115.77377054828091 l 38.138864256618135 43.395026469284225 a78.77284214104948,78.77284214104948 0 0,0 -1.0233737034990273,0.8839658310937554 l -37.38831107335625 -44.04333643284269" fill="#3dffaa" stroke="none" /><path d="M 113.31354834802062 116.24036423190432 l 31.106126227874817 37.94441621263091 a70.06495501497835,70.06495501497835 0 0,0 -0.9366991497880504,0.7545385296155133 l -30.450176307731514 -38.47280303603983" fill="#a3ff22" stroke="none" /><path d="M 111.8722381534696 117.32195027204791 l 35.616714460408794 51.96585081614374 a84.0,84.0 0 0,0 -1.1964148476119867,0.8050013037715154 l -34.719403324699805 -52.56960179397238" fill="#4dd2ff" stroke="none" /><path d="M 110.96478420261333 117.91015095944535 l 30.897395535844478 50.46857357838166 a80.17538314142922,80.17538314142922 0 0,0 -1.179980221879662,0.7085442196532105 l -30.02648255740738 -50.99153179857079" fill="#41ffcf" stroke="none" /><line stroke="#e1ed5e" stroke-width="0.3" x1="143.1302829299769" x2="145.66735839644613" y1="173.24464959558577" y2="177.55315839532614" /><path d="M 143.63769802327073 174.10635135553383 a86.0,86.0 0 0,1 -40.68552437913181,11.842963189579606" fill="none" id="id54" stroke="none" /><text fill="#e1ed5e" style="font-size:6.75px; font-family:Arial;" text-anchor="middle"><textPath startOffset="21.407464694133747" xlink:href="#id54">June</textPath></text><path d="M 110.34350942703117 118.27599006163325 l 29.45744479176384 52.04848238920297 a80.8062335603822,80.8062335603822 0 0,0 -1.2130778458631684,0.6728738322634521 l -28.559622757744577 -52.54648913689956" fill="#43ffdf" stroke="none" /><path d="M 109.3889696526874 118.78422872680471 l 26.487326295760898 52.99239574799033 a80.24333263253959,80.24333263253959 0 0,0 -1.2374276589572606,0.6052878762867471 l -25.573738387541567 -53.4392773743743" fill="#41ffd1" stroke="none" /><path d="M 108.73861861582097 119.09545874513695 l 26.056046102573514 56.937163101760504 a83.61595707625904,83.61595707625904 0 0,0 -1.310328132437907,0.5860931069384901 l -25.07480456727998 -57.37605995960884" fill="#4cdbff" stroke="none" /><line stroke="#e1ed5e" stroke-width="0.3" x1="101.45913802915013" x2="101.54496967792366" y1="184.9874750549273" y2="189.98673829345242" /><path d="M 101.47630435890484 185.9873277026323 a86.0,86.0 0 0,1 -42.54439059252881,-10.42667462771756" fill="none" id="id55" stroke="none" /><text fill="#e1ed5e" style="font-size:6.75px; font-family:Arial;" text-anchor="middle"><textPath startOffset="22.145653131862474" xlink:href="#id55">July</textPath></text><line stroke="#e1ed5e" stroke-width="0.3" x1="58.13341422392154" x2="55.67067388415222" y1="173.97424548756322" y2="178.32567169271397" /><path d="M 57.64086615596768 174.84453072859336 a86.0,86.0 0 0,1 -31.369924170532247,-30.572349798747897" fill="none" id="id56" stroke="none" /><text fill="#e1ed5e" style="font-size:6.75px; font-family:Arial;" text-anchor="middle"><textPath startOffset="22.145653131862474" xlink:href="#id56">August</textPath></text><line stroke="#e1ed5e" stroke-width="0.3" x1="26.387840678322732" x2="22.057713659400548" y1="142.50000000000003" y2="145.00000000000006" /><path d="M 25.521815274538298 143.00000000000003 a86.0,86.0 0 0,1 -11.493303480769221,-40.785679425670985" fill="none" id="id57" stroke="none" /><text fill="#e1ed5e" style="font-size:6.75px; font-family:Arial;" text-anchor="middle"><textPath startOffset="21.40746469413373" xlink:href="#id57">September</textPath></text><line stroke="#e1ed5e" stroke-width="0.3" x1="15.003131293944662" x2="10.003315487706104" y1="100.72959589197737" y2="100.7725132973878" /><path d="M 14.003168132696942 100.73817937305945 a86.0,86.0 0 0,1 10.791469493833604,-42.45332614584628" fill="none" id="id58" stroke="none" /><text fill="#e1ed5e" style="font-size:6.75px; font-family:Arial;" text-anchor="middle"><textPath startOffset="22.145653131862435" xlink:href="#id58">October</textPath></text><line stroke="#e1ed5e" stroke-width="0.3" x1="26.387840678322718" x2="22.05771365940052" y1="57.49999999999999" y2="54.99999999999999" /><path d="M 25.521815274538284 56.99999999999999 a86.0,86.0 0 0,1 29.574782752854787,-30.34633250058573" fill="none" id="id59" stroke="none" /><text fill="#e1ed5e" style="font-size:6.75px; font-family:Arial;" text-anchor="middle"><textPath startOffset="21.40746469413373" xlink:href="#id59">November</textPath></text><line stroke="#e1ed5e" stroke-width="0.3" x1="56.869717070023135" x2="54.33264160355391" y1="26.7553504044142" y2="22.446841604673864" /><path d="M 56.362301976729285 25.89364864446614 a86.0,86.0 0 0,1 42.16139366436587,-11.88097634709845" fill="none" id="id60" stroke="none" /><text fill="#e1ed5e" style="font-size:6.75px; font-family:Arial;" text-anchor="middle"><textPath startOffset="22.145653131862474" xlink:href="#id60">December</textPath></text></svg>