<?xml version="1.0" encoding="utf-8" ?>
<svg baseProfile="full" height="200mm" version="1.1" viewBox="0,0,200,200" width="200mm" xmlns="http://www.w3.org/2000/svg" xmlns:ev="http://www.w3.org/2001/xml-events" xmlns:xlink="http://www.w3.org/1999/xlink"><defs /><rect fill="#1a1a1a" height="200" width="200" x="0" y="0" /><text alignment-baseline="middle" fill="#e1ed5e" style="dominant-baseline: central; font-size:9.0px; font-family:Arial;" text-anchor="middle" x="100.0" y="100.0">2023</text><line stroke="#e1ed5e" stroke-width="0.3" x1="100.0" x2="100.0" y1="15.0" y2="10.0" /><path d="M 100.0 14.0 a86.0,86.0 0 0,1 42.46469731375804,11.215312516191453" fill="none" id="id37" stroke="none" /><text fill="#e1ed5e" style="font-size:6.75px; font-family:Arial;" text-anchor="middle"><textPath startOffset="22.20632615414155" xlink:href="#id37">January</textPath></text><line stroke="#e1ed5e" stroke-width="0.3" x1="143.23703022742887" x2="145.7803849466894" y1="26.81831364943548" y2="22.513508569990506" /><path d="M 143.74570117128098 25.957352633546492 a86.0,86.0 0 0,1 28.547481713284135,27.462654790039103" fill="none" id="id38" stroke="none" /><text fill="#e1ed5e" style="font-size:6.75px; font-family:Arial;" text-anchor="middle"><textPath startOffset="19.985693538727396" xlink:href="#id38">February</textPath></text><path d="M 115.9244219780498 86.31012108654704 l 34.79519263026517 -29.912669642589844 a66.88543598271652,66.88543598271652 0 0,0 0.7430315393835538,0.8795149784182138 l -35.30493478313584 29.309295714542525" fill="#30ff33" stroke="none" /><path d="M 116.38621287248628 86.86637796730983 l 49.158638617458855 -39.400866098070516 a84.0,84.0 0 0,0 0.8945836776241438,1.1360304241878465 l -49.829576375676965 38.54884327992963" fill="#4dd2ff" stroke="none" /><path d="M 116.82858285166822 87.43820079747576 l 50.470931445763 -37.674337285221426 a83.9815100714768,83.9815100714768 0 0,0 0.854761359992287,1.1658935344293424 l -51.11195541826892 36.79998130712059" fill="#4dd2ff" stroke="none" /><path d="M 117.2510076193507 88.02491185347247 l 24.205034283957946 -16.802347175070526 a50.46527711186813,50.46527711186813 0 0,0 0.4892140834868569,0.7178613016697125 l -24.49067283311354 16.383207850130407" fill="#ffd714" stroke="none" /><line stroke="#e1ed5e" stroke-width="0.3" x1="172.23445277983987" x2="176.4835382374775" y1="55.19839476539836" y2="52.563006222186495" /><path d="M 173.08426987136738 54.67131705675599 a86.0,86.0 0 0,1 12.851231095245387,41.99856678651699" fill="none" id="id39" stroke="none" /><text fill="#e1ed5e" style="font-size:6.75px; font-family:Arial;" text-anchor="middle"><textPath startOffset="22.20632615414155" xlink:href="#id39">March</textPath></text><path d="M 118.56541770881063 90.18545643968196 l 29.359959940561314 -15.521040802065102 a54.210088155419506,54.210088155419506 0 0,0 0.42900977518996336,0.8287103345981451 l -29.622779148911395 15.013357745206612" fill="#e8ff1a" stroke="none" /><path d="M 120.08093135843002 93.85539295169968 l 31.305886713528377 -9.579355096619237 a53.738701669238466,53.738701669238466 0 0,0 0.2630486489748207,0.8868692758549168 l -31.466141259614897 9.039056434017791" fill="#f0ff19" stroke="none" /><line stroke="#e1ed5e" stroke-width="0.3" x1="184.98032266829074" x2="189.97916517819016" y1="98.17113171792111" y2="98.06355123074" /><path d="M 185.9800911702706 98.14961562048488 a86.0,86.0 0 0,1 -9.607161424134198,41.387399972396054" fill="none" id="id40" stroke="none" /><text fill="#e1ed5e" style="font-size:6.75px; font-family:Arial;" text-anchor="middle"><textPath startOffset="21.466115282336823" xlink:href="#id40">April</textPath></text><line stroke="#e1ed5e" stroke-width="0.3" x1="174.80103733775053" x2="179.2010983576182" y1="140.37084112569926" y2="142.7455964860345" /><path d="M 175.68104954172406 140.8457921977663 a86.0,86.0 0 0,1 -30.038265399797805,32.042727171017184" fill="none" id="id41" stroke="none" /><text fill="#e1ed5e" style="font-size:6.75px; font-family:Arial;" text-anchor="middle"><textPath startOffset="22.206326154141568" xlink:href="#id41">May</textPath></text><path d="M 116.71984013943494 112.70617746262583 l 22.012123723136526 16.72802778154439 a48.647070446302095,48.647070446302095 0 0,0 -0.5124000164302095,0.6623460934533618 l -21.720916889488247 -17.104451869111006" fill="#ffb710" stroke="none" /><path d="M 116.27256486870786 113.27417163493432 l 13.954982605878113 11.38362856547386 a39.00912376677536,39.00912376677536 0 0,0 -0.42892203420934655,0.516664221218297 l -13.756964571775224 -11.622154043805928" fill="#ff0000" stroke="none" /><path d="M 115.32070863581623 114.36230785411682 l 22.797243028925564 21.37114087798222 a52.248039172825834,52.248039172825834 0 0,0 -0.620740165567394,0.6508435819109347 l -22.425996311979205 -21.760391576475662" fill="#fff517" stroke="none" /><path d="M 114.81725581225074 114.88116024355365 l 22.84297398322521 22.94149204083061 a53.37458134799272,53.37458134799272 0 0,0 -0.6566345539607602,0.6426551143043222 l -22.444689476888655 -23.331297258057504" fill="#f6ff19" stroke="none" /><path d="M 114.29624159901734 115.38237550388516 l 22.449924020429528 24.155520800633003 a53.977087101089936,53.977087101089936 0 0,0 -0.686024231702249,0.6266668701824655 l -22.03080023926041 -24.53838043740205" fill="#ecff1a" stroke="none" /><path d="M 113.48314897796784 116.09983520530334 l 18.332762172362052 21.89061697051227 a49.553270919775,49.553270919775 0 0,0 -0.658657054382233,0.542029914612617 l -17.953234989435128 -22.202942003982063" fill="#ffc712" stroke="none" /><path d="M 112.92097659922987 116.55440617244103 l 19.69169367775112 25.229075593574766 a53.00420371146099,53.00420371146099 0 0,0 -0.7240658720903187,0.5551828349661447 l -19.254499077167306 -25.56429777036828" fill="#fcff18" stroke="none" /><path d="M 112.34349029814194 116.9893568818739 l 17.951804067519483 24.70853855837468 a51.541433282825764,51.541433282825764 0 0,0 -0.7222492999350273,0.5153056985953622 l -17.52382743973557 -25.013888518814262" fill="#ffe915" stroke="none" /><path d="M 111.45004920935366 117.60387380957326 l 15.874830037001763 24.406751413042798 a50.11528367098215,50.11528367098215 0 0,0 -0.7271923300061225,0.46412855092418137 l -15.452355904948709 -24.676394392790787" fill="#ffd113" stroke="none" /><line stroke="#e1ed5e" stroke-width="0.3" x1="143.8653032363475" x2="146.44561519142675" y1="172.8068346515853" y2="177.08958963109032" /><path d="M 144.38136562736335 173.6633856474863 a86.0,86.0 0 0,1 -40.68145358897372,12.25698825130547" fill="none" id="id42" stroke="none" /><text fill="#e1ed5e" style="font-size:6.75px; font-family:Arial;" text-anchor="middle"><textPath startOffset="21.466115282336833" xlink:href="#id42">June</textPath></text><path d="M 110.8373102113329 117.98757091392108 l 14.572302063801741 24.18684264270713 a49.23748119896243,49.23748119896243 0 0,0 -0.7297279094644327,0.43113611140594654 l -14.153806283308926 -24.434097326406828" fill="#ffc112" stroke="none" /><path d="M 110.21172684928248 118.3499491758327 l 14.69405547857694 26.40446373060775 a51.21772611081908,51.21772611081908 0 0,0 -0.7740637093111167,0.4220812523373778 l -14.237368957397175 -26.653485634704897" fill="#ffe415" stroke="none" /><path d="M 109.57404056367764 118.69057910512821 l 10.487697366667486 20.47423300106081 a44.004043406247774,44.004043406247774 0 0,0 -0.6771302225184361,0.3395271505635769 l -10.13371323646629 -20.65172799253369" fill="#ff6209" stroke="none" /><path d="M 108.92500713936063 119.00905698771935 l 13.584940869281258 28.9340849958653 a52.96454118190696,52.96454118190696 0 0,0 -0.8285974698929021,0.3803684582883312 l -13.084875403620936 -29.163640524487707" fill="#fdff18" stroke="none" /><path d="M 108.2653958097858 119.30500536409082 l 8.931461123346649 20.860695466179255 a43.6922809151157,43.6922809151157 0 0,0 -0.6939344135640702,0.2900646411495287 l -8.571055250285118 -21.011345150348756" fill="#ff5c08" stroke="none" /><path d="M 107.2578585660854 119.70592522655815 l 9.73277221592152 26.42560195789509 a49.160953354673964,49.160953354673964 0 0,0 -0.7965957527328367,0.28563089541064723 l -9.276456902558948 -26.5892203943457" fill="#ffc011" stroke="none" /><path d="M 106.57524785965236 119.94407469862006 l 9.635871553192587 29.227573795726325 a51.77500756416242,51.77500756416242 0 0,0 -0.8488109505760107,0.27176246180808494 l -9.131339257525635 -29.389109104194116" fill="#ffed16" stroke="none" /><path d="M 105.88484417918355 120.15858648285463 l 7.814663237478009 26.769198964405014 a48.88653751743111,48.88653751743111 0 0,0 -0.8098144143618632,0.2288616425162101 l -7.35271765501154 -26.899749400259743" fill="#ffbb11" stroke="none" /><path d="M 104.83641907484287 120.43548508189849 l 6.512642649869442 27.51808924239406 a49.27825577784567,49.27825577784567 0 0,0 -0.8271234397502559,0.18825060200443455 l -6.0379990607263245 -27.626116577976177" fill="#ffc212" stroke="none" /><path d="M 103.7750983002368 120.6578951692458 l 4.347134213880464 23.788160131181517 a45.182103678138176,45.182103678138176 0 0,0 -0.7662691760012089,0.13322571834102814 l -3.9370160664072054 -23.859464428043548" fill="#ff780b" stroke="none" /><path d="M 102.70371172650421 120.8252237178851 l 4.211665834719119 32.44017561975921 a53.71243071592449,53.71243071592449 0 0,0 -0.9179008773903817,0.11114501322079616 l -3.6526375342773565 -32.50786616170536" fill="#f1ff19" stroke="none" /><path d="M 101.98527174616119 120.90594882070398 l 2.7231978854367327 28.676696644514283 a49.805706677058694,49.805706677058694 0 0,0 -0.8541813461257489,0.07370236075138882 l -2.229172221569442 -28.719323257544335" fill="#ffcb12" stroke="none" /><path d="M 101.26447882468166 120.96189622390904 l 1.7100241974121693 28.347924114546895 a49.39945394474768,49.39945394474768 0 0,0 -0.8492282041863197,0.04389539792622379 l -1.2218079248123699 -28.37315931923532" fill="#ffc412" stroke="none" /><line stroke="#e1ed5e" stroke-width="0.3" x1="102.19456741930631" x2="102.32365962044197" y1="184.97166512339345" y2="189.96999836594603" /><path d="M 102.22038585953345 185.97133177190398 a86.0,86.0 0 0,1 -42.740103519485714,-10.115201625700543" fill="none" id="id43" stroke="none" /><text fill="#e1ed5e" style="font-size:6.75px; font-family:Arial;" text-anchor="middle"><textPath startOffset="22.20632615414155" xlink:href="#id43">July</textPath></text><path d="M 100.54218724476979 120.99299961872073 l 0.7190990244580175 27.842863682046207 a48.85214823714652,48.85214823714652 0 0,0 -0.8408159813449331,0.014475409636547839 l -0.23972335322041652 -27.851116568961917" fill="#ffba11" stroke="none" /><path d="M 99.81925306533755 120.99922214144158 l -0.261119593837675 30.3369369263198 a51.33806067489799,51.33806067489799 0 0,0 -0.8836021224116266,-0.015212011856830129 l 0.7832814061419695 -30.32794743718381" fill="#ffe615" stroke="none" /><path d="M 99.09653310690486 120.98055641714683 l -1.2081950377810675 28.057037116481553 a49.08303877796956,49.08303877796956 0 0,0 -0.8437886970176389,-0.04361423753786904 l 1.6909718032121954 -28.03208307218148" fill="#ffbe11" stroke="none" /><path d="M 98.37488393609728 120.93702456842531 l -1.9251398614470787 24.80235195015906 a45.87695370710995,45.87695370710995 0 0,0 -0.786802169634471,-0.06788860188693267 l 2.3517863488230915 -24.765539095993464" fill="#ff850c" stroke="none" /><path d="M 95.86986931433489 120.58985236759428 l -4.772730962107063 23.79339381223614 a45.26735564376169,45.26735564376169 0 0,0 -0.762665568822644,-0.15982398520521818 l 5.181587992359093 -23.70771384630438" fill="#ff790b" stroke="none" /><path d="M 94.46302465271185 120.25689768951611 l -6.488610986746226 23.738434914644063 a45.60925364033042,45.60925364033042 0 0,0 -0.7555256089277205,-0.213519083824301 l 6.89626776377856 -23.623227037481243" fill="#ff800b" stroke="none" /><path d="M 93.76903079525671 120.05430185196036 l -7.304073812587464 23.50807654050389 a45.61664389988845,45.61664389988845 0 0,0 -0.7478493715866265,-0.239437752477265 l 7.707644529265031 -23.378865941366918" fill="#ff800b" stroke="none" /><path d="M 93.08242187328487 119.8279376855182 l -8.60391573190748 24.66150751877682 a47.11929017068516,47.11929017068516 0 0,0 -0.7635129886712452,-0.27376859324652586 l 9.02714828120845 -24.509751384490333" fill="#ff9b0e" stroke="none" /><path d="M 92.40401165467489 119.57807347666478 l -9.627927658981676 24.81524017234239 a47.61753436773624,47.61753436773624 0 0,0 -0.7616060097607186,-0.3030587490405012 l 10.053654744784254 -24.645834578895823" fill="#ffa40f" stroke="none" /><path d="M 91.7346041902142 119.30500536409082 l -9.680284402817295 22.609678546919543 a45.594826084249135,45.594826084249135 0 0,0 -0.7188335361462254,-0.31511549767615527 l 10.068038613621264 -22.439698495948935" fill="#ff7f0b" stroke="none" /><path d="M 90.7491055286396 118.85261126421891 l -10.916908165236842 22.247819006427576 a45.78193564738184,45.78193564738184 0 0,0 -0.7044882668176558,-0.35324504191888895 l 11.298250339737258 -22.056606123599384" fill="#ff830c" stroke="none" /><path d="M 90.10565033884886 118.52300852407294 l -11.69080365774343 21.886113107149953 a45.81283613581624,45.81283613581624 0 0,0 -0.6923785291956235,-0.37753997917623844 l 12.065804998807694 -21.68163247621395" fill="#ff830c" stroke="none" /><line stroke="#e1ed5e" stroke-width="0.3" x1="58.666819895761336" x2="56.23545636021788" y1="174.27360380694188" y2="178.64263932499728" /><path d="M 58.180547188652646 175.14741091055294 a86.0,86.0 0 0,1 -31.652253787137756,-30.449443065178592" fill="none" id="id44" stroke="none" /><text fill="#e1ed5e" style="font-size:6.75px; font-family:Arial;" text-anchor="middle"><textPath startOffset="22.20632615414155" xlink:href="#id44">August</textPath></text><path d="M 87.65650970185807 116.9893568818739 l -16.532262651809937 22.754707418432023 a49.12636517730073,49.12636517730073 0 0,0 -0.6798504794871268,-0.5029371317950868 l 16.921498101715628 -22.46676033789717" fill="#ffbf11" stroke="none" /><path d="M 85.70375840098266 115.38237550388516 l -18.507405182083875 19.913475450284256 a48.1858520389356,48.1858520389356 0 0,0 -0.6026998390464081,-0.5698903164455749 l 18.8474408555211 -19.591950497092753" fill="#ffae10" stroke="none" /><path d="M 85.18274418774928 114.88116024355367 l -20.17679823085307 20.26381750303103 a49.595899822259526,49.595899822259526 0 0,0 -0.5997782723175914,-0.6075722232789965 l 20.522617128226194 -19.91350478577137" fill="#ffc712" stroke="none" /><path d="M 83.72743513129214 113.27417163493432 l -20.981995986407316 17.11583995603946 a48.07759466744359,48.07759466744359 0 0,0 -0.5175944278950348,-0.6457786325805774 l 21.273508326357213 -16.752133489880624" fill="#ffad10" stroke="none" /><path d="M 82.85270091963577 112.12312394758628 l -22.321153749646903 15.78103421955079 a48.336330144223986,48.336330144223986 0 0,0 -0.4744765355734255,-0.6835188376257434 l 22.58949119238246 -15.394474119738035" fill="#ffb110" stroke="none" /><path d="M 82.05923443525364 110.91462005526583 l -23.981554115624522 14.589653410397187 a49.07085542758079,49.07085542758079 0 0,0 -0.4328028986207228,-0.7254025528645495 l 24.229137889943477 -14.174688763646527" fill="#ffbe11" stroke="none" /><line stroke="#e1ed5e" stroke-width="0.3" x1="26.63291911575756" x2="22.317208475507996" y1="142.92168965132927" y2="145.44649492493687" /><path d="M 25.769776987707644 143.4266507060508 a86.0,86.0 0 0,1 -11.730757126820373,-40.83630448921669" fill="none" id="id45" stroke="none" /><text fill="#e1ed5e" style="font-size:6.75px; font-family:Arial;" text-anchor="middle"><textPath startOffset="21.46611528233685" xlink:href="#id45">September</textPath></text><path d="M 81.69416730710424 110.29060199501025 l -24.435929340284112 13.736628507297866 a49.03229575812274,49.03229575812274 0 0,0 -0.40725662280794966,-0.7392890660790024 l 24.668762372543576 -13.313968922821042" fill="#ffbe11" stroke="none" /><path d="M 81.35079622478065 109.6543875284942 l -25.207658447394888 13.049592157947671 a49.38517042205821,49.38517042205821 0 0,0 -0.38431382110498424,-0.7582876289018002 l 25.42855093828614 -12.613750317343186" fill="#ffc412" stroke="none" /><path d="M 81.02952815118164 109.00673069616217 l -24.813219746585155 11.780729005752496 a48.46782572573413,48.46782572573413 0 0,0 -0.35133492104954206,-0.7567441637188209 l 25.012329284474525 -11.351864774754848" fill="#ffb410" stroke="none" /><path d="M 80.73074385275274 108.34839909993369 l -25.899579741833527 11.220984689451662 a49.22585212539211,49.22585212539211 0 0,0 -0.33016252246828987,-0.7804066746825568 l 26.088893245494123 -10.773503489102945" fill="#ffc111" stroke="none" /><path d="M 80.45479744820244 107.68017299344265 l -25.104231519409225 9.864560903144303 a47.972801152122535,47.972801152122535 0 0,0 -0.2953884577567877,-0.771166052474081 l 25.270314256759523 -9.430971283837065" fill="#ffab0f" stroke="none" /><path d="M 80.20201598880116 107.00284435728193 l -25.391683775887465 8.98141999464588 a47.933315987729614,47.933315987729614 0 0,0 -0.26844749825964487,-0.7802340874310574 l 25.542522105090338 -8.543013204125526" fill="#ffaa0f" stroke="none" /><path d="M 79.97269907076064 106.31721596034903 l -26.373111041590946 8.318876247210973 a48.65401757482079,48.65401757482079 0 0,0 -0.24506154616344053,-0.8008753120282941 l 26.512399360260517 -7.863673962630631" fill="#ffb711" stroke="none" /><path d="M 79.76711848015287 105.62410040840567 l -26.847642750225322 7.462794580601722 a48.865556233385774,48.865556233385774 0 0,0 -0.21829389670871868,-0.8123527969759778 l 26.972124723275815 -6.999550850450205" fill="#ffbb11" stroke="none" /><path d="M 79.58551787078972 104.9243191809786 l -26.734684677328502 6.448859183432846 a48.50147540703825,48.50147540703825 0 0,0 -0.18878491196687636,-0.8132804597931184 l 26.841730155225935 -5.987710066291154" fill="#ffb410" stroke="none" /><path d="M 79.35854240842038 103.8639653848113 l -25.923997091651486 4.852827226646662 a47.37429728541858,47.37429728541858 0 0,0 -0.14314608116384397,-0.8028392429081375 l 26.003689615154517 -4.405869233005311" fill="#ffa00e" stroke="none" /><path d="M 79.18660465613746 102.79330883721812 l -23.21209550857281 3.115231822738962 a44.420205959993424,44.420205959993424 0 0,0 -0.09518296319732696,-0.7587018680355371 l 23.262279981016984 -2.7152122004160164" fill="#ff6909" stroke="none" /><path d="M 79.07016306316243 101.71520430193888 l -31.04376988921225 2.5440431200236047 a52.14783787570015,52.14783787570015 0 0,0 -0.06561549213763401,-0.8952712584667429 l 31.08296194001422 -2.009298725060101" fill="#fff316" stroke="none" /><path d="M 79.0095281055655 100.63252640178507 l -24.54570564308648 0.739659734558597 a45.55684755908166,45.55684755908166 0 0,0 -0.016873252599200392,-0.784033746111844 l 24.55480095837069 -0.31703617265662426" fill="#ff7f0b" stroke="none" /><line stroke="#e1ed5e" stroke-width="0.3" x1="15.007084014347285" x2="10.007500721073583" y1="101.09737516637583" y2="101.16192664675087" /><path d="M 14.007167355692545 101.11028546245083 a86.0,86.0 0 0,1 10.666146001902534,-42.60595125391555" fill="none" id="id46" stroke="none" /><text fill="#e1ed5e" style="font-size:6.75px; font-family:Arial;" text-anchor="middle"><textPath startOffset="22.20632615414155" xlink:href="#id46">October</textPath></text><path d="M 79.00019446554 99.90962569577889 l -27.31474173484927 -0.117551125662368 a48.31499467890596,48.31499467890596 0 0,0 0.01073741601305072,-0.8316247032583682 l 27.308671311718502 0.5877120869812082" fill="#ffb110" stroke="none" /><path d="M 79.01574976396665 99.18683210126434 l -27.09038606106463 -1.0497888683859744 a48.110718795445315,48.110718795445315 0 0,0 0.03919051447061238,-0.8272498194961403 l 27.06830193836052 1.515949794505124" fill="#ffad10" stroke="none" /><path d="M 79.05617556472873 98.46500227214037 l -27.956641328336758 -2.0489753936875865 a49.03162668353737,49.03162668353737 0 0,0 0.06893733747624578,-0.8412101290829641 l 27.917229507041018 2.5298994399783292" fill="#ffbe11" stroke="none" /><path d="M 79.12142395522702 97.74499172005258 l -28.152317628815627 -3.0406148971343474 a49.31604362947618,49.31604362947618 0 0,0 0.09841990379861687,-0.8432016317241777 l 28.09580737201342 3.5247602671833866" fill="#ffc312" stroke="none" /><line stroke="#e1ed5e" stroke-width="0.3" x1="26.266209847984243" x2="21.928928074336255" y1="57.711370442889674" y2="55.22380399835377" /><path d="M 25.398753493254645 57.213857153982495 a86.0,86.0 0 0,1 29.58750427330803,-30.492523968695096" fill="none" id="id47" stroke="none" /><text fill="#e1ed5e" style="font-size:6.75px; font-family:Arial;" text-anchor="middle"><textPath startOffset="21.46611528233685" xlink:href="#id47">November</textPath></text><path d="M 82.34701348167596 88.62581576622439 l -23.001761824281182 -14.820510762823552 a48.36290529698789,48.36290529698789 0 0,0 0.45692205403755515,-0.6959236359194545 l 22.743243134885706 15.214252462720674" fill="#ffb210" stroke="none" /><path d="M 82.95767976084542 87.72973835380427 l -20.06107049700874 -14.44372482424882 a45.71978430902212,45.71978430902212 0 0,0 0.4653346311738364,-0.6347159139675417 l 19.80947325332127 14.786903181887862" fill="#ff820b" stroke="none" /><path d="M 84.31358615837235 86.03803664274999 l -21.129200591107914 -18.806409635717205 a49.28646603953332,49.28646603953332 0 0,0 0.5695083055263853,-0.6288652952679351 l 20.802348644965484 19.167327718254697" fill="#ffc212" stroke="none" /><path d="M 84.80347519578584 85.50635884689758 l -19.965075226796344 -19.041632192883768 a48.58963547023963,48.58963547023963 0 0,0 0.5824641743570405,-0.6002805317213269 l 19.634346788736188 19.382476920155217" fill="#ffb610" stroke="none" /><path d="M 86.37877921826538 84.01681056812374 l -17.61093903607384 -20.664739174057132 a48.150996645871416,48.150996645871416 0 0,0 0.6354612289671628,-0.5321805043733895 l 17.252620270147567 20.964820835824334" fill="#ffae10" stroke="none" /><path d="M 87.22198572758235 83.33499621200491 l -15.013771680353585 -19.5808641774076 a45.674350690623484,45.674350690623484 0 0,0 0.6280306874526509,-0.47301969334773486 l 14.674494839142545 19.836400460261192" fill="#ff810b" stroke="none" /><path d="M 87.80319425747018 82.90503203632743 l -14.485977631946685 -20.303457213973942 a45.94140979962701,45.94140979962701 0 0,0 0.6477057545378873,-0.45375927320170406 l 14.134340737825138 20.54980132993959" fill="#ff860c" stroke="none" /><line stroke="#e1ed5e" stroke-width="0.3" x1="56.762969772571076" x2="54.21961505331055" y1="26.818313649435495" y2="22.513508569990535" /><path d="M 56.25429882871897 25.957352633546506 a86.0,86.0 0 0,1 42.265352541879196,-11.944610805530505" fill="none" id="id48" stroke="none" /><text fill="#e1ed5e" style="font-size:6.75px; font-family:Arial;" text-anchor="middle"><textPath startOffset="22.20632615414155" xlink:href="#id48">December</textPath></text></svg>