<?xml version="1.0" encoding="utf-8" ?>
<svg baseProfile="full" height="200mm" version="1.1" viewBox="0,0,200,200" width="200mm" xmlns="http://www.w3.org/2000/svg" xmlns:ev="http://www.w3.org/2001/xml-events" xmlns:xlink="http://www.w3.org/1999/xlink"><defs /><rect fill="#1a1a1a" height="200" width="200" x="0" y="0" /><text alignment-baseline="middle" fill="#e1ed5e" style="dominant-baseline: central; font-size:9.0px; font-family:Arial;" text-anchor="middle" x="100.0" y="100.0">2024</text><line stroke="#e1ed5e" stroke-width="0.3" x1="100.0" x2="100.0" y1="15.0" y2="10.0" /><path d="M 100.0 14.0 a86.0,86.0 0 0,1 42.35913384403234,11.155469271406648" fill="none" id="id49" stroke="none" /><text fill="#e1ed5e" style="font-size:6.75px; font-family:Arial;" text-anchor="middle"><textPath startOffset="22.145653131862478" xlink:href="#id49">January</textPath></text><path d="M 105.3480935250658 79.69241777938227 l 15.568510036668357 -59.1161684327996 a82.13182374947581,82.13182374947581 0 0,0 1.3603321845343526,0.37076458602336787 l -16.5810236221374 58.84020335263209" fill="#43ffdd" stroke="none" /><path d="M 110.34350942703115 81.72400993836675 l 29.695506340185453 -52.46911433464702 a81.28956009013713,81.28956009013713 0 0,0 1.208533949735983,0.6977474012048716 l -30.591832757781834 51.95162003616598" fill="#3effb7" stroke="none" /><line stroke="#e1ed5e" stroke-width="0.3" x1="143.13028292997686" x2="145.6673583964461" y1="26.7553504044142" y2="22.446841604673864" /><path d="M 143.63769802327073 25.89364864446614 a86.0,86.0 0 0,1 29.32050498858742,28.57503671076993" fill="none" id="id50" stroke="none" /><text fill="#e1ed5e" style="font-size:6.75px; font-family:Arial;" text-anchor="middle"><textPath startOffset="20.669276256404974" xlink:href="#id50">February</textPath></text><path d="M 113.86319453409587 84.22622945171908 l 38.85594824451164 -44.210936414215006 a79.85908266870908,79.85908266870908 0 0,0 1.0219489732802556,0.9138330735572825 l -39.60916224461527 43.53740781077433" fill="#36ff71" stroke="none" /><path d="M 114.39649973595853 84.71141617570332 l 41.6457857312655 -44.226381256468585 a81.74820382708441,81.74820382708441 0 0,0 1.0133955565371746,0.9708100192277047 l -42.39885377366798 43.5049591069353" fill="#41ffcc" stroke="none" /><path d="M 114.91283532996326 85.21462403516908 l 37.11598510620537 -36.798756370473754 a73.2660962844705,73.2660962844705 0 0,0 0.8778436596822975,0.9007449286395337 l -37.74221556703848 36.15618874976648" fill="#ffc712" stroke="none" /><path d="M 115.41159269507618 85.73525988315684 l 45.12581050022981 -41.76777650977938 a82.4889089826249,82.4889089826249 0 0,0 0.9529523321061859,1.047461545662348 l -45.836160533177875 40.98697738855936" fill="#45ffed" stroke="none" /><line stroke="#e1ed5e" stroke-width="0.3" x1="172.87174338648825" x2="177.1583165268699" y1="56.24261187166439" y2="53.66864786411523" /><path d="M 173.72905801456457 55.72781907015455 a86.0,86.0 0 0,1 12.242430191666344,42.057860355516425" fill="none" id="id51" stroke="none" /><text fill="#e1ed5e" style="font-size:6.75px; font-family:Arial;" text-anchor="middle"><textPath startOffset="22.145653131862474" xlink:href="#id51">March</textPath></text><path d="M 118.36410011445183 89.81374322990088 l 52.87656774252291 -29.329740787190012 a81.46623116147865,81.46623116147865 0 0,0 0.6678471687504831,1.2287635693066197 l -53.37226026088873 28.41772238440879" fill="#3fffbf" stroke="none" /><path d="M 118.8641267826498 90.77261029715802 l 54.1621109808735 -26.49340257873806 a81.29456564321151,81.29456564321151 0 0,0 0.6024343156772962,1.2588560189152453 l -54.60892455451071 25.559734057757712" fill="#3effb7" stroke="none" /><path d="M 119.4528033332814 92.08871423366111 l 58.358409999844184 -23.733857299016663 a84.0,84.0 0 0,0 0.5317653001355023,1.3403959311457387 l -58.75723397494581 22.728560350657357" fill="#4dd2ff" stroke="none" /><path d="M 120.05942366710727 93.78553927170692 l 58.07630916883303 -17.992189036105373 a81.79947822954429,81.79947822954429 0 0,0 0.40402585255959544,1.3448706608838528 l -58.376611341396256 16.992580771630795" fill="#41ffce" stroke="none" /><path d="M 120.65975698304385 96.23510406497455 l 48.16989594584292 -8.778159664992517 a69.96320008473134,69.96320008473134 0 0,0 0.20517602124026224,1.1834007671079596 l -48.31348678457541 7.949965864963964" fill="#ff0000" stroke="none" /><path d="M 120.86939407059847 97.66154086499901 l 53.01233064546562 -5.940142221964698 a74.34409517539257,74.34409517539257 0 0,0 0.13122655910795786,1.2694979202315768 l -53.106489597055244 5.029239779450189" fill="#fbff18" stroke="none" /><path d="M 120.93736805541906 98.37931529534042 l 59.54098158873846 -4.608848538453728 a80.71909220174817,80.71909220174817 0 0,0 0.09507955235347877,1.382435824126254 l -59.611325102257005 3.5860692901731395" fill="#3bff9c" stroke="none" /><path d="M 120.98066250479742 99.09900007780936 l 57.45688294248511 -2.4674457753018295 a78.50983990692802,78.50983990692802 0 0,0 0.0462658972702656,1.3469811185019058 l -57.49077352675222 1.4807583922358036" fill="#33ff2f" stroke="none" /><line stroke="#e1ed5e" stroke-width="0.3" x1="184.99686870605535" x2="189.99668451229388" y1="99.2704041080226" y2="99.22748670261217" /><path d="M 185.99683186730306 99.26182062694052 a86.0,86.0 0 0,1 -10.086455211305974,41.156179273409016" fill="none" id="id52" stroke="none" /><text fill="#e1ed5e" style="font-size:6.75px; font-family:Arial;" text-anchor="middle"><textPath startOffset="21.40746469413373" xlink:href="#id52">April</textPath></text><path d="M 120.99922638620191 99.81974689727618 l 59.94275981306242 -0.5145364997461678 a80.9449681108937,80.9449681108937 0 0,0 0.0,1.389579204939982 l -59.94275981306242 -0.5145364997461606" fill="#3cffa6" stroke="none" /><line stroke="#e1ed5e" stroke-width="0.3" x1="174.33088141563837" x2="178.70328620479359" y1="141.23008692659167" y2="143.65538615756765" /><path d="M 175.20536237346943 141.71514677278685 a86.0,86.0 0 0,1 -30.301960400862466,31.631185727798858" fill="none" id="id53" stroke="none" /><text fill="#e1ed5e" style="font-size:6.75px; font-family:Arial;" text-anchor="middle"><textPath startOffset="22.145653131862474" xlink:href="#id53">May</textPath></text><line stroke="#e1ed5e" stroke-width="0.3" x1="143.1302829299769" x2="145.66735839644613" y1="173.24464959558577" y2="177.55315839532614" /><path d="M 143.63769802327073 174.10635135553383 a86.0,86.0 0 0,1 -40.68552437913181,11.842963189579606" fill="none" id="id54" stroke="none" /><text fill="#e1ed5e" style="font-size:6.75px; font-family:Arial;" text-anchor="middle"><textPath startOffset="21.407464694133747" xlink:href="#id54">June</textPath></text><line stroke="#e1ed5e" stroke-width="0.3" x1="101.45913802915013" x2="101.54496967792366" y1="184.9874750549273" y2="189.98673829345242" /><path d="M 101.47630435890484 185.9873277026323 a86.0,86.0 0 0,1 -42.54439059252881,-10.42667462771756" fill="none" id="id55" stroke="none" /><text fill="#e1ed5e" style="font-size:6.75px; font-family:Arial;" text-anchor="middle"><textPath startOffset="22.145653131862474" xlink:href="#id55">July</textPath></text><line stroke="#e1ed5e" stroke-width="0.3" x1="58.13341422392154" x2="55.67067388415222" y1="173.97424548756322" y2="178.32567169271397" /><path d="M 57.64086615596768 174.84453072859336 a86.0,86.0 0 0,1 -31.369924170532247,-30.572349798747897" fill="none" id="id56" stroke="none" /><text fill="#e1ed5e" style="font-size:6.75px; font-family:Arial;" text-anchor="middle"><textPath startOffset="22.145653131862474" xlink:href="#id56">August</textPath></text><line stroke="#e1ed5e" stroke-width="0.3" x1="26.387840678322732" x2="22.057713659400548" y1="142.50000000000003" y2="145.00000000000006" /><path d="M 25.521815274538298 143.00000000000003 a86.0,86.0 0 0,1 -11.493303480769221,-40.785679425670985" fill="none" id="id57" stroke="none" /><text fill="#e1ed5e" style="font-size:6.75px; font-family:Arial;" text-anchor="middle"><textPath startOffset="21.40746469413373" xlink:href="#id57">September</textPath></text><line stroke="#e1ed5e" stroke-width="0.3" x1="15.003131293944662" x2="10.003315487706104" y1="100.72959589197737" y2="100.7725132973878" /><path d="M 14.003168132696942 100.73817937305945 a86.0,86.0 0 0,1 10.791469493833604,-42.45332614584628" fill="none" id="id58" stroke="none" /><text fill="#e1ed5e" style="font-size:6.75px; font-family:Arial;" text-anchor="middle"><textPath startOffset="22.145653131862435" xlink:href="#id58">October</textPath></text><line stroke="#e1ed5e" stroke-width="0.3" x1="26.387840678322718" x2="22.05771365940052" y1="57.49999999999999" y2="54.99999999999999" /><path d="M 25.521815274538284 56.99999999999999 a86.0,86.0 0 0,1 29.574782752854787,-30.34633250058573" fill="none" id="id59" stroke="none" /><text fill="#e1ed5e" style="font-size:6.75px; font-family:Arial;" text-anchor="middle"><textPath startOffset="21.40746469413373" xlink:href="#id59">November</textPath></text><line stroke="#e1ed5e" stroke-width="0.3" x1="56.869717070023135" x2="54.33264160355391" y1="26.7553504044142" y2="22.446841604673864" /><path d="M 56.362301976729285 25.89364864446614 a86.0,86.0 0 0,1 42.16139366436587,-11.88097634709845" fill="none" id="id60" stroke="none" /><text fill="#e1ed5e" style="font-size:6.75px; font-family:Arial;" text-anchor="middle"><textPath startOffset="22.145653131862474" xlink:href="#id60">December</textPath></text></svg>