<?xml version="1.0" encoding="utf-8" ?>
<svg baseProfile="full" height="200mm" version="1.1" viewBox="0,0,200,200" width="200mm" xmlns="http://www.w3.org/2000/svg" xmlns:ev="http://www.w3.org/2001/xml-events" xmlns:xlink="http://www.w3.org/1999/xlink"><defs /><rect fill="#1a1a1a" height="200" width="200" x="0" y="0" /><text alignment-baseline="middle" fill="#e1ed5e" style="dominant-baseline: central; font-size:9.0px; font-family:Arial;" text-anchor="middle" x="100.0" y="100.0">2024</text><line stroke="#e1ed5e" stroke-width="0.3" x1="100.0" x2="100.0" y1="15.0" y2="10.0" /><path d="M 100.0 14.0 a86.0,86.0 0 0,1 42.35913384403234,11.155469271406648" fill="none" id="id49" stroke="none" /><text fill="#e1ed5e" style="font-size:6.75px; font-family:Arial;" text-anchor="middle"><textPath startOffset="22.145653131862478" xlink:href="#id49">January</textPath></text><path d="M 105.3480935250658 79.69241777938227 l 14.497617075527979 -55.049813430608154 a77.92682021344075,77.92682021344075 0 0,0 1.290685592202525,0.35178209757868883 l -15.440484068665198 54.79283083888532" fill="#3bff9e" stroke="none" /><path d="M 110.34350942703115 81.72400993836675 l 27.652876143570364 -48.85998249827335 a77.14249236312207,77.14249236312207 0 0,0 1.1468793887518325,0.6621511238239041 l -28.487548000182596 48.37808447717327" fill="#39ff89" stroke="none" /><line stroke="#e1ed5e" stroke-width="0.3" x1="143.13028292997686" x2="145.6673583964461" y1="26.7553504044142" y2="22.446841604673864" /><path d="M 143.63769802327073 25.89364864446614 a86.0,86.0 0 0,1 29.32050498858742,28.57503671076993" fill="none" id="id50" stroke="none" /><text fill="#e1ed5e" style="font-size:6.75px; font-family:Arial;" text-anchor="middle"><textPath startOffset="20.669276256404974" xlink:href="#id50">February</textPath></text><path d="M 113.86319453409587 84.22622945171908 l 36.18320940338443 -41.16985024091415 a75.81041152544347,75.81041152544347 0 0,0 0.9701385194189958,0.8675038462354318 l -36.8846129496268 40.542650864795334" fill="#35ff66" stroke="none" /><path d="M 114.39649973595853 84.71141617570332 l 38.78114558935527 -41.18423269679832 a77.56958790769826,77.56958790769826 0 0,0 0.9615951424982493,0.9211863943511857 l -39.48241321771883 40.51243417214155" fill="#3aff95" stroke="none" /><path d="M 114.91283532996326 85.21462403516908 l 34.562931082255105 -34.267523189967484 a69.67092921417954,69.67092921417954 0 0,0 0.8347678745892891,0.856545378364561 l -35.1460857579952 33.669155119535176" fill="#95ff23" stroke="none" /><path d="M 115.41159269507618 85.73525988315684 l 42.02179394908708 -38.89474513031805 a78.25934304069452,78.25934304069452 0 0,0 0.9040903120131762,0.9937536262140689 l -42.683281961942136 38.16765392854631" fill="#3cffa6" stroke="none" /><line stroke="#e1ed5e" stroke-width="0.3" x1="172.87174338648825" x2="177.1583165268699" y1="56.24261187166439" y2="53.66864786411523" /><path d="M 173.72905801456457 55.72781907015455 a86.0,86.0 0 0,1 12.242430191666344,42.057860355516425" fill="none" id="id51" stroke="none" /><text fill="#e1ed5e" style="font-size:6.75px; font-family:Arial;" text-anchor="middle"><textPath startOffset="22.145653131862474" xlink:href="#id51">March</textPath></text><path d="M 118.36410011445183 89.81374322990088 l 49.23940888330252 -27.312270079518168 a77.30701096731732,77.30701096731732 0 0,0 0.6337505450172138,1.1660296220201711 l -49.70100477793507 26.462985624023393" fill="#39ff8e" stroke="none" /><path d="M 118.8641267826498 90.77261029715802 l 50.436524956693276 -24.671031762815055 a77.14715360504906,77.14715360504906 0 0,0 0.5716998709665898,1.1946328501726207 l -50.85260408561978 23.801586410577332" fill="#39ff8a" stroke="none" /><path d="M 119.4528033332814 92.08871423366111 l 54.34417804412189 -22.101304109124754 a79.66649240081799,79.66649240081799 0 0,0 0.5043318600269486,1.2712457412227303 l -54.715568579114965 21.165157350688457" fill="#40ffc9" stroke="none" /><path d="M 120.05942366710727 93.78553927170692 l 54.081481754299986 -16.75458129144058 a77.61733535757554,77.61733535757554 0 0,0 0.3833693168952527,1.276111771831381 l -54.36112739119887 15.823731916018478" fill="#3aff96" stroke="none" /><path d="M 120.65975698304385 96.23510406497455 l 44.85648943579344 -8.174346623483341 a66.59522548715273,66.59522548715273 0 0,0 0.1952990055129576,1.1264327651076556 l -44.99020325879864 7.403120825455093" fill="#e7ff1a" stroke="none" /><path d="M 120.86939407059847 97.66154086499901 l 49.36583322161683 -5.531544579756669 a70.67477705136001,70.67477705136001 0 0,0 0.12474975700883652,1.206840735203798 l -49.45351537110733 4.6832993222699395" fill="#7bff26" stroke="none" /><path d="M 120.93736805541906 98.37931529534042 l 55.445405458936015 -4.291825043773282 a76.61126458472394,76.61126458472394 0 0,0 0.09024091504576803,1.3120830996070543 l -55.51091033514685 3.339398520011893" fill="#37ff7b" stroke="none" /><path d="M 120.98066250479742 99.09900007780936 l 53.50466327809511 -2.2977204575583374 a74.55397755352465,74.55397755352465 0 0,0 0.043934705135944094,1.2791110030648642 l -53.5362226702279 1.3789031899293533" fill="#31ff43" stroke="none" /><line stroke="#e1ed5e" stroke-width="0.3" x1="184.99686870605535" x2="189.99668451229388" y1="99.2704041080226" y2="99.22748670261217" /><path d="M 185.99683186730306 99.26182062694052 a86.0,86.0 0 0,1 -10.086455211305974,41.156179273409016" fill="none" id="id52" stroke="none" /><text fill="#e1ed5e" style="font-size:6.75px; font-family:Arial;" text-anchor="middle"><textPath startOffset="21.40746469413373" xlink:href="#id52">April</textPath></text><path d="M 120.99922638620191 99.81974689727618 l 55.81954703265215 -0.4791436770206675 a76.82160343087338,76.82160343087338 0 0,0 0.0,1.318793559488982 l -55.81954703265215 -0.4791436770206607" fill="#38ff81" stroke="none" /><path d="M 120.99303781780057 100.54070618675476 l 56.401159441457466 1.452693798525843 a77.4198644593638,77.4198644593638 0 0,0 -0.0456235740641143,1.328280579190687 l -56.367911180396504 -2.4206806422806406" fill="#3aff91" stroke="none" /><path d="M 120.96210409425399 101.26102812881392 l 56.69642839283457 3.410716342461356 a77.79892585667929,77.79892585667929 0 0,0 -0.09163986910985539,1.3324235846706374 l -56.62952456255965 -4.383483351286337" fill="#3bff9a" stroke="none" /><path d="M 120.82617615685814 102.69636545807757 l 36.340004505464435 4.704941135468623 a57.64331314913268,57.64331314913268 0 0,0 -0.13547683751594533,0.9802429085542407 l -36.253883151393275 -5.328072352222948" fill="#ff0000" stroke="none" /><path d="M 120.16314734710363 105.8691983318838 l 55.45185822771511 16.14122776604681 a78.75333596167425,78.75333596167425 0 0,0 -0.3889802770445402,1.2947888333025004 l -55.16660163066694 -17.090754202940033" fill="#3effb3" stroke="none" /><path d="M 119.83427380445688 106.89939002012753 l 53.19094489458255 18.502571759616043 a77.3171535191389,77.3171535191389 0 0,0 -0.44681888589376345,1.2498319472322608 l -52.865485838644844 -19.412938663229223" fill="#39ff8e" stroke="none" /><path d="M 119.4528033332814 107.91128576633889 l 45.19615260893166 18.380881804144895 a69.79087031963854,69.79087031963854 0 0,0 -0.46086619050664446,1.1059110847702536 l -44.87396057388853 -19.154025398356424" fill="#91ff23" stroke="none" /><path d="M 119.16976305983485 108.57439118712176 l 47.6881835889137 21.330317950113937 a73.24122240015916,73.24122240015916 0 0,0 -0.5232057701442728,1.1432990313731668 l -47.314993353914375 -22.145805963701793" fill="#3dff2e" stroke="none" /><path d="M 118.70294669586154 109.54985784667822 l 50.90156163456306 25.9907000585939 a78.15317547059844,78.15317547059844 0 0,0 -0.6203573207111278,1.1896169596423716 l -50.447896244876986 -26.860663261340775" fill="#3cffa4" stroke="none" /><line stroke="#e1ed5e" stroke-width="0.3" x1="174.33088141563837" x2="178.70328620479359" y1="141.23008692659167" y2="143.65538615756765" /><path d="M 175.20536237346943 141.71514677278685 a86.0,86.0 0 0,1 -30.301960400862466,31.631185727798858" fill="none" id="id53" stroke="none" /><text fill="#e1ed5e" style="font-size:6.75px; font-family:Arial;" text-anchor="middle"><textPath startOffset="22.145653131862474" xlink:href="#id53">May</textPath></text><path d="M 118.18653347947321 110.5 l 48.8331385339545 28.1938256779529 a77.38765135590583,77.38765135590583 0 0,0 -0.6741064735384327,1.144780165819917 l -48.341958350286305 -29.02795701206637" fill="#3aff90" stroke="none" /><path d="M 117.01052211995028 112.31430620078461 l 45.71446869905488 33.09374993881674 a77.43588338503972,77.43588338503972 0 0,0 -0.7887323365620094,1.070066894977595 l -45.13963434290905 -33.87362314306321" fill="#3aff91" stroke="none" /><path d="M 116.1254893667686 113.45245675266167 l 43.5793503205779 36.35544399072994 a77.75278039115577,77.75278039115577 0 0,0 -0.8638164936997174,1.0175736575425884 l -42.94883926337107 -37.09818443072208" fill="#3bff99" stroke="none" /><path d="M 115.6541949942343 113.99807769240083 l 37.79408191318257 33.79570109664191 a71.70051321509396,71.70051321509396 0 0,0 -0.8283194931809035,0.9104682232236263 l -37.20836471915979 -34.43950689542321" fill="#62ff29" stroke="none" /><path d="M 115.16444852881244 114.52719865689866 l 35.21842935537338 33.738458649345084 a69.77111192389398,69.77111192389398 0 0,0 -0.8359682218302871,0.8577770403786448 l -34.63407433239229 -34.33805838179147" fill="#92ff23" stroke="none" /><path d="M 114.39649973595853 115.28858382429668 l 39.18086403496367 41.60871983421948 a78.15265236862484,78.15265236862484 0 0,0 -0.9846126242660521,0.9113427456076892 l -38.460821639383646 -42.275180325959546" fill="#3cffa4" stroke="none" /><path d="M 113.86319453409587 115.77377054828091 l 36.47329684444544 41.49991649822448 a76.2498366700087,76.2498366700087 0 0,0 -0.9905961956337651,0.855653400471166 l -35.75552116904882 -42.11991403116036" fill="#36ff72" stroke="none" /><path d="M 113.31354834802062 116.24036423190432 l 29.747686453279588 36.287340566842424 a67.9222328404845,67.9222328404845 0 0,0 -0.9080530736055805,0.7314632783922517 l -29.120382609318757 -36.79265213902808" fill="#c3ff1e" stroke="none" /><path d="M 111.8722381534696 117.32195027204791 l 34.06129218734982 49.6964432353929 a81.24871862305991,81.24871862305991 0 0,0 -1.1572282536913978,0.7786348145396218 l -33.20316764556142 -50.27382772398965" fill="#45ffef" stroke="none" /><path d="M 110.96478420261333 117.91015095944535 l 29.548071267055263 48.26455379097004 a77.59112711586877,77.59112711586877 0 0,0 -1.1419464653953857,0.6857060416829868 l -28.71519204510244 -48.76467383318895" fill="#3aff95" stroke="none" /><line stroke="#e1ed5e" stroke-width="0.3" x1="143.1302829299769" x2="145.66735839644613" y1="173.24464959558577" y2="177.55315839532614" /><path d="M 143.63769802327073 174.10635135553383 a86.0,86.0 0 0,1 -40.68552437913181,11.842963189579606" fill="none" id="id54" stroke="none" /><text fill="#e1ed5e" style="font-size:6.75px; font-family:Arial;" text-anchor="middle"><textPath startOffset="21.407464694133747" xlink:href="#id54">June</textPath></text><path d="M 110.34350942703117 118.27599006163325 l 28.17100480338574 49.77546619403776 a78.19442758229317,78.19442758229317 0 0,0 -1.1738689404345388,0.6511253133661801 l -27.312391674795105 -50.251724422837086" fill="#3cffa5" stroke="none" /><path d="M 109.3889696526874 118.78422872680471 l 25.330594747150386 50.678157787023906 a77.6561091757178,77.6561091757178 0 0,0 -1.1975302399400942,0.5857720493602881 l -24.45690425794822 -51.10552358648142" fill="#3aff97" stroke="none" /><path d="M 108.73861861582097 119.09545874513695 l 24.918149048625853 54.45065268116251 a80.8814472889068,80.8814472889068 0 0,0 -1.2674762028770625,0.5669259839004638 l -23.979759442893165 -54.87038241597282" fill="#44ffe6" stroke="none" /><path d="M 108.07796709384702 119.3841803445677 l 22.670811617415588 54.40169486261419 a79.93649211920683,79.93649211920683 0 0,0 -1.2711635681568858,0.5169711568636829 l -21.73359358806826 -54.78285327605717" fill="#41ffd0" stroke="none" /><path d="M 107.407793817531 119.65005319985036 l 21.244613839372477 56.353862220895934 a81.22533855775141,81.22533855775141 0 0,0 -1.308930272786162,0.48065732674051875 l -20.274094414932186 -56.71025039664518" fill="#45ffee" stroke="none" /><path d="M 106.72888874123015 119.89276391827305 l 19.561421228997293 57.8298660267637 a82.04869044600142,82.04869044600142 0 0,0 -1.338086232549289,0.43985552240865655 l -18.56581225880027 -58.15714247057438" fill="#47fdff" stroke="none" /><path d="M 105.3480935250658 120.30758222061773 l 14.688560512915608 55.77485676353844 a78.67658499716165,78.67658499716165 0 0,0 -1.3090086831004952,0.33274488840550415 l -13.728946536589715 -56.018786883779214" fill="#3dffb1" stroke="none" /><path d="M 104.64783097203109 120.47920084513623 l 13.943492916093243 61.4376025354087 a84.0,84.0 0 0,0 -1.4089503335234566,0.30707416746512495 l -12.88678016595065 -61.66790816100754" fill="#4dd2ff" stroke="none" /><path d="M 102.875027216393 120.80226474461374 l 8.2838742022502 59.93798712016419 a81.50772572007375,81.50772572007375 0 0,0 -1.3876580777223826,0.17966012004372614 l -7.253738302637042 -60.07135883640831" fill="#46fff5" stroke="none" /><path d="M 102.15924093988457 120.88869738790638 l 6.08868571122507 58.90251104568689 a80.21636514661587,80.21636514661587 0 0,0 -1.3709375464184514,0.129829211004221 l -5.076648601421603 -58.9983520121963" fill="#42ffd7" stroke="none" /><line stroke="#e1ed5e" stroke-width="0.3" x1="101.45913802915013" x2="101.54496967792366" y1="184.9874750549273" y2="189.98673829345242" /><path d="M 101.47630435890484 185.9873277026323 a86.0,86.0 0 0,1 -42.54439059252881,-10.42667462771756" fill="none" id="id55" stroke="none" /><text fill="#e1ed5e" style="font-size:6.75px; font-family:Arial;" text-anchor="middle"><textPath startOffset="22.145653131862474" xlink:href="#id55">July</textPath></text><line stroke="#e1ed5e" stroke-width="0.3" x1="58.13341422392154" x2="55.67067388415222" y1="173.97424548756322" y2="178.32567169271397" /><path d="M 57.64086615596768 174.84453072859336 a86.0,86.0 0 0,1 -31.369924170532247,-30.572349798747897" fill="none" id="id56" stroke="none" /><text fill="#e1ed5e" style="font-size:6.75px; font-family:Arial;" text-anchor="middle"><textPath startOffset="22.145653131862474" xlink:href="#id56">August</textPath></text><line stroke="#e1ed5e" stroke-width="0.3" x1="26.387840678322732" x2="22.057713659400548" y1="142.50000000000003" y2="145.00000000000006" /><path d="M 25.521815274538298 143.00000000000003 a86.0,86.0 0 0,1 -11.493303480769221,-40.785679425670985" fill="none" id="id57" stroke="none" /><text fill="#e1ed5e" style="font-size:6.75px; font-family:Arial;" text-anchor="middle"><textPath startOffset="21.40746469413373" xlink:href="#id57">September</textPath></text><line stroke="#e1ed5e" stroke-width="0.3" x1="15.003131293944662" x2="10.003315487706104" y1="100.72959589197737" y2="100.7725132973878" /><path d="M 14.003168132696942 100.73817937305945 a86.0,86.0 0 0,1 10.791469493833604,-42.45332614584628" fill="none" id="id58" stroke="none" /><text fill="#e1ed5e" style="font-size:6.75px; font-family:Arial;" text-anchor="middle"><textPath startOffset="22.145653131862435" xlink:href="#id58">October</textPath></text><line stroke="#e1ed5e" stroke-width="0.3" x1="26.387840678322718" x2="22.05771365940052" y1="57.49999999999999" y2="54.99999999999999" /><path d="M 25.521815274538284 56.99999999999999 a86.0,86.0 0 0,1 29.574782752854787,-30.34633250058573" fill="none" id="id59" stroke="none" /><text fill="#e1ed5e" style="font-size:6.75px; font-family:Arial;" text-anchor="middle"><textPath startOffset="21.40746469413373" xlink:href="#id59">November</textPath></text><line stroke="#e1ed5e" stroke-width="0.3" x1="56.869717070023135" x2="54.33264160355391" y1="26.7553504044142" y2="22.446841604673864" /><path d="M 56.362301976729285 25.89364864446614 a86.0,86.0 0 0,1 42.16139366436587,-11.88097634709845" fill="none" id="id60" stroke="none" /><text fill="#e1ed5e" style="font-size:6.75px; font-family:Arial;" text-anchor="middle"><textPath startOffset="22.145653131862474" xlink:href="#id60">December</textPath></text></svg>