<?xml version="1.0" encoding="utf-8" ?>
<svg baseProfile="full" height="200mm" version="1.1" viewBox="0,0,200,200" width="200mm" xmlns="http://www.w3.org/2000/svg" xmlns:ev="http://www.w3.org/2001/xml-events" xmlns:xlink="http://www.w3.org/1999/xlink"><defs /><rect fill="#1a1a1a" height="200" width="200" x="0" y="0" /><text alignment-baseline="middle" fill="#e1ed5e" style="dominant-baseline: central; font-size:9.0px; font-family:Arial;" text-anchor="middle" x="100.0" y="100.0">2024</text><line stroke="#e1ed5e" stroke-width="0.3" x1="100.0" x2="100.0" y1="15.0" y2="10.0" /><path d="M 100.0 14.0 a86.0,86.0 0 0,1 42.35913384403234,11.155469271406648" fill="none" id="id49" stroke="none" /><text fill="#e1ed5e" style="font-size:6.75px; font-family:Arial;" text-anchor="middle"><textPath startOffset="22.145653131862478" xlink:href="#id49">January</textPath></text><path d="M 105.3480935250658 79.69241777938227 l 14.96100684692223 -56.80937987025194 a79.74638173637794,79.74638173637794 0 0,0 1.3208226083844845,0.35999607535244016 l -15.934010856241407 56.54418330075536" fill="#40ffc6" stroke="none" /><path d="M 110.34350942703115 81.72400993836675 l 28.536749671737468 -50.42170233141891 a78.93698428314701,78.93698428314701 0 0,0 1.1735581455992345,0.6775541112713962 l -29.398100285197103 49.92440132287135" fill="#3effb1" stroke="none" /><line stroke="#e1ed5e" stroke-width="0.3" x1="143.13028292997686" x2="145.6673583964461" y1="26.7553504044142" y2="22.446841604673864" /><path d="M 143.63769802327073 25.89364864446614 a86.0,86.0 0 0,1 29.32050498858742,28.57503671076993" fill="none" id="id50" stroke="none" /><text fill="#e1ed5e" style="font-size:6.75px; font-family:Arial;" text-anchor="middle"><textPath startOffset="20.669276256404974" xlink:href="#id50">February</textPath></text><path d="M 113.86319453409587 84.22622945171908 l 37.33973940734262 -42.48576908413398 a77.56232592175299,77.56232592175299 0 0,0 0.9925575988618519,0.8875511253161377 l -38.06356203302784 41.83852242893445" fill="#39ff8d" stroke="none" /><path d="M 114.39649973595853 84.71141617570332 l 40.02071386429565 -42.500611248873014 a79.37773115440217,79.37773115440217 0 0,0 0.9840098775750994,0.9426592035129876 l -40.74439622773606 41.80733991505445" fill="#3fffbd" stroke="none" /><path d="M 114.91283532996326 85.21462403516908 l 35.667671857893104 -35.36282179349112 a71.2266063054289,71.2266063054289 0 0,0 0.853407345508606,0.8756711175755442 l -36.26946600455252 34.74532798384784" fill="#7cff26" stroke="none" /><path d="M 115.41159269507618 85.73525988315684 l 43.364943612248844 -40.13794440648042 a80.08953304665079,80.08953304665079 0 0,0 0.9252335645532338,1.0169937645082794 l -44.04757487764396 39.38761306641447" fill="#41ffcf" stroke="none" /><line stroke="#e1ed5e" stroke-width="0.3" x1="172.87174338648825" x2="177.1583165268699" y1="56.24261187166439" y2="53.66864786411523" /><path d="M 173.72905801456457 55.72781907015455 a86.0,86.0 0 0,1 12.242430191666344,42.057860355516425" fill="none" id="id51" stroke="none" /><text fill="#e1ed5e" style="font-size:6.75px; font-family:Arial;" text-anchor="middle"><textPath startOffset="22.145653131862474" xlink:href="#id51">March</textPath></text><path d="M 118.36410011445183 89.81374322990088 l 50.81325638576807 -28.185256758809746 a79.10676142314102,79.10676142314102 0 0,0 0.6485046121839738,1.1931754438217919 l -51.289606347567386 27.30882648151335" fill="#3effb6" stroke="none" /><path d="M 118.8641267826498 90.77261029715802 l 52.04863608142797 -25.459596097841455 a78.94179451313317,78.94179451313317 0 0,0 0.584999078100473,1.2224230781055485 l -52.47801441748836 24.562360517670804" fill="#3effb2" stroke="none" /><path d="M 119.4528033332814 92.08871423366111 l 56.08119014130181 -22.80773180722763 a81.54165935829039,81.54165935829039 0 0,0 0.5162026781215259,1.3011679574133843 l -56.46445149438946 21.84166283260068" fill="#45fff3" stroke="none" /><path d="M 120.05942366710727 93.78553927170692 l 55.81009724581344 -17.29011078942633 a79.42700476404545,79.42700476404545 0 0,0 0.39230767739124844,1.3058646668783502 l -56.09868124320831 16.329508518957255" fill="#3fffbe" stroke="none" /><path d="M 120.65975698304385 96.23510406497455 l 46.29024494726214 -8.435624638581928 a68.05259334320031,68.05259334320031 0 0,0 0.19957292291275006,1.1510835849203072 l -46.428232687667126 7.6397480207410275" fill="#d3ff1c" stroke="none" /><path d="M 120.86939407059847 97.66154086499901 l 50.94372164645775 -5.708350268920396 a72.26254029975935,72.26254029975935 0 0,0 0.12755235629091755,1.2339533409448156 l -51.034206395230335 4.832992405692649" fill="#61ff29" stroke="none" /><path d="M 120.93736805541906 98.37931529534042 l 57.2176162730737 -4.4290053690320645 a78.38877678197736,78.38877678197736 0 0,0 0.09233465841437895,1.3425256686731528 l -57.28521489265315 3.446136276204578" fill="#3cffa3" stroke="none" /><path d="M 120.98066250479742 99.09900007780936 l 55.2148418237 -2.371162882752002 a76.265732339604,76.265732339604 0 0,0 0.04494344329129529,1.308479313828044 l -55.24740995398814 1.4229773043598382" fill="#35ff69" stroke="none" /><line stroke="#e1ed5e" stroke-width="0.3" x1="184.99686870605535" x2="189.99668451229388" y1="99.2704041080226" y2="99.22748670261217" /><path d="M 185.99683186730306 99.26182062694052 a86.0,86.0 0 0,1 -10.086455211305974,41.156179273409016" fill="none" id="id52" stroke="none" /><text fill="#e1ed5e" style="font-size:6.75px; font-family:Arial;" text-anchor="middle"><textPath startOffset="21.40746469413373" xlink:href="#id52">April</textPath></text><path d="M 120.99922638620191 99.81974689727618 l 57.603716596797526 -0.49445862690538994 a78.60583872402074,78.60583872402074 0 0,0 0.0,1.3494234592584267 l -57.603716596797526 -0.4944586269053829" fill="#3dffa9" stroke="none" /><path d="M 120.99303781780057 100.54070618675476 l 58.20391918078488 1.499126494581875 a79.22322207032255,79.22322207032255 0 0,0 -0.046686293820887396,1.3592205053801667 l -58.16960819996714 -2.498053264526152" fill="#3effb9" stroke="none" /><path d="M 120.96210409425399 101.26102812881392 l 58.5086258632847 3.5197336422003382 a79.61439947079441,79.61439947079441 0 0,0 -0.09377832748235775,1.3635163000797221 l -58.439583574637275 -4.523593366434404" fill="#40ffc3" stroke="none" /><path d="M 120.82617615685814 102.69636545807757 l 37.50154617762505 4.855325959804232 a58.814549526452026,58.814549526452026 0 0,0 -0.13822954883169392,1.000160156373389 l -37.41267211223815 -5.4983744243777055" fill="#ff0000" stroke="none" /><path d="M 120.16314734710363 105.8691983318838 l 57.22427529278588 16.657152542205832 a80.59931554639583,80.59931554639583 0 0,0 -0.398097981602897,1.3251387064045752 l -56.92990099117936 -17.63702885220113" fill="#43ffdc" stroke="none" /><path d="M 119.83427380445688 106.89939002012753 l 54.89109600676436 19.093972570744306 a79.11722816305125,79.11722816305125 0 0,0 -0.45722158840297356,1.2789301575900371 l -54.55523424831744 -20.033437684715263" fill="#3effb6" stroke="none" /><path d="M 119.4528033332814 107.91128576633889 l 46.64076483149512 18.968393018772364 a71.3503811086018,71.3503811086018 0 0,0 -0.4711644686778691,1.1306232034246608 l -46.30827451828077 -19.766248731638303" fill="#79ff26" stroke="none" /><path d="M 119.16976305983485 108.57439118712176 l 49.21244901655944 22.012102488026354 a74.9110173726191,74.9110173726191 0 0,0 -0.5351341123526497,1.1693646118214949 l -48.827330439351734 -22.85365608206254" fill="#31ff41" stroke="none" /><path d="M 118.70294669586154 109.54985784667822 l 52.52853680479747 26.82144517317265 a79.97997202466672,79.97997202466672 0 0,0 -0.6348579038152968,1.2174237397181655 l -52.06037083200722 -27.719215155995318" fill="#41ffcc" stroke="none" /><line stroke="#e1ed5e" stroke-width="0.3" x1="174.33088141563837" x2="178.70328620479359" y1="141.23008692659167" y2="143.65538615756765" /><path d="M 175.20536237346943 141.71514677278685 a86.0,86.0 0 0,1 -30.301960400862466,31.631185727798858" fill="none" id="id53" stroke="none" /><text fill="#e1ed5e" style="font-size:6.75px; font-family:Arial;" text-anchor="middle"><textPath startOffset="22.145653131862474" xlink:href="#id53">May</textPath></text><path d="M 118.18653347947321 110.5 l 50.39400034895652 29.094989667012122 a79.18997933402427,79.18997933402427 0 0,0 -0.6898061483082674,1.171441645855838 l -49.887120490518484 -29.95578248116151" fill="#3effb8" stroke="none" /><path d="M 117.01052211995028 112.31430620078461 l 47.1756479459273 34.15153103062202 a79.23975301161238,79.23975301161238 0 0,0 -0.8071058637076268,1.0949941132886851 l -46.58244006263585 -34.95633145317958" fill="#3effb9" stroke="none" /><path d="M 116.1254893667686 113.45245675266167 l 44.972284419841046 37.51747915775322 a79.56677905000005,79.56677905000005 0 0,0 -0.883969624599678,1.0413139950684152 l -44.32162023173425 -38.28395993527119" fill="#3fffc2" stroke="none" /><path d="M 115.6541949942343 113.99807769240083 l 39.002100505932404 34.87591877129111 a73.32106224090398,73.32106224090398 0 0,0 -0.8470408703028065,0.9310462961831574 l -38.39766193478772 -35.54030264303194" fill="#47ff2c" stroke="none" /><path d="M 115.16444852881244 114.52719865689866 l 36.34412193249345 34.81684667402982 a71.32999117193299,71.32999117193299 0 0,0 -0.854646059650226,0.8769421474096057 l -35.741089071692414 -35.43561151350716" fill="#79ff26" stroke="none" /><path d="M 114.39649973595853 115.28858382429668 l 40.43320857776708 42.93866634001683 a79.97943220269683,79.97943220269683 0 0,0 -1.0076274603831692,0.93264493432614 l -39.690151346069946 -43.62642902047535" fill="#41ffcc" stroke="none" /><path d="M 113.86319453409587 115.77377054828091 l 37.63909896204115 42.82638530470538 a78.01579648607404,78.01579648607404 0 0,0 -1.013538580192662,0.8754704858277051 l -36.898380902085634 -43.4661999229978" fill="#3bff99" stroke="none" /><path d="M 113.31354834802062 116.24036423190432 l 30.698516755478824 37.44719893268094 a69.42201605561456,69.42201605561456 0 0,0 -0.9281036918094799,0.747614637108522 l -30.051162293314093 -37.96866186358287" fill="#adff20" stroke="none" /><path d="M 111.8722381534696 117.32195027204791 l 35.14999899467277 51.28489900367421 a83.17445854321983,83.17445854321983 0 0,0 -1.1846566326570935,0.7970898519974026 l -34.26444607391868 -51.88073852972874" fill="#4ae5ff" stroke="none" /><path d="M 110.96478420261333 117.91015095944535 l 30.4925212355052 49.80724183626238 a79.39995882390382,79.39995882390382 0 0,0 -1.1685679239598568,0.7016914626543199 l -29.633020554987908 -50.32334729945262" fill="#3fffbd" stroke="none" /><line stroke="#e1ed5e" stroke-width="0.3" x1="143.1302829299769" x2="145.66735839644613" y1="173.24464959558577" y2="177.55315839532614" /><path d="M 143.63769802327073 174.10635135553383 a86.0,86.0 0 0,1 -40.68552437913181,11.842963189579606" fill="none" id="id54" stroke="none" /><text fill="#e1ed5e" style="font-size:6.75px; font-family:Arial;" text-anchor="middle"><textPath startOffset="21.407464694133747" xlink:href="#id54">June</textPath></text><path d="M 110.34350942703117 118.27599006163325 l 29.071439364995364 51.366447786428694 a80.02254268454136,80.02254268454136 0 0,0 -1.2013129361823178,0.6663480351844077 l -28.185382240656953 -51.857928737046244" fill="#41ffcd" stroke="none" /><path d="M 109.3889696526874 118.78422872680471 l 26.140240804706703 52.29799226252894 a79.4670179162542,79.4670179162542 0 0,0 -1.2254561558993537,0.5994320142414563 l -25.23862439954528 -52.73901802686762" fill="#3fffbf" stroke="none" /><path d="M 108.73861861582097 119.09545874513695 l 25.714612034994943 56.19106804506276 a82.79544805368094,82.79544805368094 0 0,0 -1.2974701075728365,0.5803418759638177 l -24.74622852456648 -56.624213671936424" fill="#49edff" stroke="none" /><path d="M 108.07796709384702 119.3841803445677 l 23.39544257973073 56.14054537953119 a81.82028912306056,81.82028912306056 0 0,0 -1.301120025559732,0.5291541872989727 l -22.42826809298056 -56.53388682340945" fill="#46fffa" stroke="none" /><path d="M 107.407793817531 119.65005319985036 l 21.92365900238782 58.15511019121267 a83.15033117695407,83.15033117695407 0 0,0 -1.339951148277777,0.49204862190493737 l -20.922118702455915 -58.52288966212633" fill="#4ae5ff" stroke="none" /><path d="M 106.72888874123015 119.89276391827305 l 20.186666223690434 59.678291754819156 a84.0,84.0 0 0,0 -1.369909049409063,0.4503163143919231 l -19.159234436633636 -60.016028990613094" fill="#4dd2ff" stroke="none" /><line stroke="#e1ed5e" stroke-width="0.3" x1="101.45913802915013" x2="101.54496967792366" y1="184.9874750549273" y2="189.98673829345242" /><path d="M 101.47630435890484 185.9873277026323 a86.0,86.0 0 0,1 -42.54439059252881,-10.42667462771756" fill="none" id="id55" stroke="none" /><text fill="#e1ed5e" style="font-size:6.75px; font-family:Arial;" text-anchor="middle"><textPath startOffset="22.145653131862474" xlink:href="#id55">July</textPath></text><line stroke="#e1ed5e" stroke-width="0.3" x1="58.13341422392154" x2="55.67067388415222" y1="173.97424548756322" y2="178.32567169271397" /><path d="M 57.64086615596768 174.84453072859336 a86.0,86.0 0 0,1 -31.369924170532247,-30.572349798747897" fill="none" id="id56" stroke="none" /><text fill="#e1ed5e" style="font-size:6.75px; font-family:Arial;" text-anchor="middle"><textPath startOffset="22.145653131862474" xlink:href="#id56">August</textPath></text><line stroke="#e1ed5e" stroke-width="0.3" x1="26.387840678322732" x2="22.057713659400548" y1="142.50000000000003" y2="145.00000000000006" /><path d="M 25.521815274538298 143.00000000000003 a86.0,86.0 0 0,1 -11.493303480769221,-40.785679425670985" fill="none" id="id57" stroke="none" /><text fill="#e1ed5e" style="font-size:6.75px; font-family:Arial;" text-anchor="middle"><textPath startOffset="21.40746469413373" xlink:href="#id57">September</textPath></text><line stroke="#e1ed5e" stroke-width="0.3" x1="15.003131293944662" x2="10.003315487706104" y1="100.72959589197737" y2="100.7725132973878" /><path d="M 14.003168132696942 100.73817937305945 a86.0,86.0 0 0,1 10.791469493833604,-42.45332614584628" fill="none" id="id58" stroke="none" /><text fill="#e1ed5e" style="font-size:6.75px; font-family:Arial;" text-anchor="middle"><textPath startOffset="22.145653131862435" xlink:href="#id58">October</textPath></text><line stroke="#e1ed5e" stroke-width="0.3" x1="26.387840678322718" x2="22.05771365940052" y1="57.49999999999999" y2="54.99999999999999" /><path d="M 25.521815274538284 56.99999999999999 a86.0,86.0 0 0,1 29.574782752854787,-30.34633250058573" fill="none" id="id59" stroke="none" /><text fill="#e1ed5e" style="font-size:6.75px; font-family:Arial;" text-anchor="middle"><textPath startOffset="21.40746469413373" xlink:href="#id59">November</textPath></text><line stroke="#e1ed5e" stroke-width="0.3" x1="56.869717070023135" x2="54.33264160355391" y1="26.7553504044142" y2="22.446841604673864" /><path d="M 56.362301976729285 25.89364864446614 a86.0,86.0 0 0,1 42.16139366436587,-11.88097634709845" fill="none" id="id60" stroke="none" /><text fill="#e1ed5e" style="font-size:6.75px; font-family:Arial;" text-anchor="middle"><textPath startOffset="22.145653131862474" xlink:href="#id60">December</textPath></text></svg>